<?xml version="1.0" encoding="UTF-8"?>
<!DOCTYPE svg PUBLIC "-//W3C//DTD SVG 1.1//EN" "http://www.w3.org/Graphics/SVG/1.1/DTD/svg11.dtd">
<!-- Creator: CorelDRAW -->
<svg xmlns="http://www.w3.org/2000/svg" xml:space="preserve" width="2048px" height="2048px" style="shape-rendering:geometricPrecision; text-rendering:geometricPrecision; image-rendering:optimizeQuality; fill-rule:evenodd; clip-rule:evenodd"
viewBox="0 0 2048 2048"
 xmlns:xlink="http://www.w3.org/1999/xlink">
 <defs>
  <style type="text/css">
   <![CDATA[
    .fil2 {fill:none}
    .fil4 {fill:#1B5C72}
    .fil6 {fill:#424242}
    .fil9 {fill:#616161}
    .fil8 {fill:#9E9E9E}
    .fil1 {fill:#AFB42B}
    .fil0 {fill:#D4E157}
    .fil5 {fill:#FBDEBC}
    .fil3 {fill:#FDEEDB}
    .fil7 {fill:#B71C1C;fill-rule:nonzero}
    .fil10 {fill:#EF6C00;fill-rule:nonzero}
    .fil11 {fill:#FFB74D;fill-rule:nonzero}
   ]]>
  </style>
   <clipPath id="id0">
    <path d="M1024 0c565.538,0 1024,458.462 1024,1024 0,565.538 -458.462,1024 -1024,1024 -565.538,0 -1024,-458.462 -1024,-1024 0,-565.538 458.462,-1024 1024,-1024z"/>
   </clipPath>
 </defs>
 <g id="Layer_x0020_1">
  <metadata id="CorelCorpID_0Corel-Layer"/>
  <path class="fil0" d="M1024 0c565.538,0 1024,458.462 1024,1024 0,565.538 -458.462,1024 -1024,1024 -565.538,0 -1024,-458.462 -1024,-1024 0,-565.538 458.462,-1024 1024,-1024z"/>
  <g style="clip-path:url(#id0)">
   <g id="_385694224">
    <g>
     <polygon id="_2861254321" class="fil1" points="1189.17,743.812 2325.05,1879.69 2338.15,1894.81 2350.52,1910.56 2362.14,1926.89 2372.98,1943.8 2383.01,1961.25 2392.21,1979.22 2400.56,1997.68 2408.02,2016.6 2414.57,2035.96 2420.19,2055.74 2424.84,2075.9 2428.5,2096.42 2431.15,2117.28 2432.76,2138.44 2433.31,2159.88 2433.24,2167.56 2433.03,2175.2 2432.69,2182.81 2432.21,2190.38 2431.59,2197.92 2430.85,2205.41 2429.97,2212.87 2428.96,2220.29 2427.82,2227.66 2426.55,2234.99 2425.16,2242.28 2423.64,2249.52 2422,2256.72 2420.23,2263.86 2418.34,2270.96 2416.33,2278.01 2414.2,2285 2411.94,2291.95 2409.58,2298.84 2407.09,2305.67 2404.49,2312.45 2401.78,2319.17 2398.95,2325.83 2396.01,2332.43 2392.96,2338.98 2389.81,2345.45 2386.54,2351.87 2383.17,2358.22 2379.69,2364.51 2376.11,2370.73 2372.42,2376.88 2368.63,2382.96 1232.75,1247.08 1236.54,1241 1240.22,1234.85 1243.81,1228.63 1247.29,1222.34 1250.66,1215.99 1253.93,1209.57 1257.08,1203.09 1260.13,1196.55 1263.07,1189.95 1265.9,1183.29 1268.61,1176.57 1271.21,1169.79 1273.69,1162.95 1276.06,1156.06 1278.31,1149.12 1280.44,1142.12 1282.46,1135.08 1284.35,1127.98 1286.12,1120.83 1287.76,1113.64 1289.28,1106.4 1290.67,1099.11 1291.94,1091.78 1293.08,1084.41 1294.09,1076.99 1294.97,1069.53 1295.71,1062.04 1296.32,1054.5 1296.8,1046.93 1297.15,1039.32 1297.35,1031.68 1297.42,1024 1296.88,1002.56 1295.27,981.394 1292.62,960.539 1288.96,940.018 1284.3,919.857 1278.69,900.082 1272.14,880.72 1264.68,861.797 1256.33,843.338 1247.13,825.37 1237.1,807.92 1226.26,791.012 1214.64,774.675 1202.27,758.932 "/>
     <polygon id="_286125936" class="fil1" points="1232.75,1247.08 2368.63,2382.96 2368.63,2472.91 1232.75,1337.03 "/>
     <polygon id="_286126608" class="fil1" points="1255.41,1337.03 2391.29,2472.91 2391.29,2516.49 1255.41,1380.6 "/>
     <polygon id="_286126632" class="fil1" points="1255.41,1380.6 2391.29,2516.49 2368.63,2516.49 1232.75,1380.6 "/>
     <polygon id="_286126008" class="fil1" points="1185.68,1380.6 2321.56,2516.49 2232.31,2516.49 1096.43,1380.6 "/>
     <polygon id="_286126152" class="fil1" points="1232.75,1435.95 2368.63,2571.83 2321.56,2571.83 1185.68,1435.95 "/>
     <polygon id="_286125984" class="fil1" points="1232.75,1380.6 2368.63,2516.49 2368.63,2571.83 1232.75,1435.95 "/>
     <polygon id="_286126512" class="fil1" points="1096.43,1380.6 2232.31,2516.49 2230.73,2517.44 2229.15,2518.39 2227.56,2519.32 2225.97,2520.26 2224.37,2521.18 2222.77,2522.1 2221.16,2523.01 2219.55,2523.91 2217.94,2524.81 2216.32,2525.7 2214.7,2526.59 2213.07,2527.46 2211.44,2528.33 2209.8,2529.19 2208.16,2530.05 2206.51,2530.9 1070.63,1395.02 1072.28,1394.17 1073.92,1393.31 1075.55,1392.45 1077.19,1391.58 1078.81,1390.7 1080.44,1389.82 1082.06,1388.93 1083.67,1388.03 1085.28,1387.13 1086.89,1386.22 1088.49,1385.3 1090.09,1384.37 1091.68,1383.44 1093.27,1382.5 1094.85,1381.56 "/>
     <polygon id="_286126032" class="fil1" points="1070.63,1395.02 2206.51,2530.9 2206.51,2571.83 1070.63,1435.95 "/>
     <polygon id="_286127232" class="fil1" points="1070.63,1435.95 2206.51,2571.83 2079.79,2571.83 943.908,1435.95 "/>
     <polygon id="_286127424" class="fil1" points="943.908,1435.95 2079.79,2571.83 2077.86,2572.12 2075.92,2572.4 2073.98,2572.68 2072.04,2572.94 2070.09,2573.19 2068.15,2573.44 2066.19,2573.67 2064.24,2573.9 2062.29,2574.12 2060.33,2574.33 2058.37,2574.53 2056.4,2574.72 2054.44,2574.9 2052.47,2575.07 2050.49,2575.24 2048.52,2575.39 2046.54,2575.54 2044.56,2575.67 2042.58,2575.8 2040.6,2575.92 2038.61,2576.02 2036.62,2576.12 2034.63,2576.21 2032.63,2576.29 2030.64,2576.36 2028.64,2576.42 2026.64,2576.48 2024.63,2576.52 2022.63,2576.55 2020.62,2576.58 2018.61,2576.59 2016.59,2576.59 1995.15,2576.05 1973.99,2574.44 1953.13,2571.79 1932.61,2568.13 1912.45,2563.47 1892.68,2557.86 1873.31,2551.31 1854.39,2543.85 1835.93,2535.5 1817.96,2526.3 1800.51,2516.27 1783.61,2505.43 1767.27,2493.81 1751.53,2481.44 1736.4,2468.34 600.524,1332.46 615.644,1345.56 631.386,1357.93 647.724,1369.54 664.632,1380.38 682.082,1390.42 700.049,1399.62 718.509,1407.96 737.432,1415.43 756.794,1421.98 776.569,1427.59 796.73,1432.25 817.251,1435.91 838.106,1438.56 859.268,1440.17 880.712,1440.71 882.725,1440.71 884.736,1440.69 886.744,1440.67 888.751,1440.64 890.755,1440.59 892.756,1440.54 894.755,1440.48 896.753,1440.41 898.746,1440.33 900.739,1440.24 902.728,1440.14 904.716,1440.03 906.7,1439.91 908.682,1439.79 910.661,1439.65 912.638,1439.51 914.613,1439.35 916.586,1439.19 918.555,1439.02 920.521,1438.84 922.485,1438.65 924.446,1438.44 926.405,1438.24 928.361,1438.02 930.314,1437.79 932.265,1437.56 934.213,1437.31 936.158,1437.06 938.1,1436.79 940.039,1436.52 941.975,1436.24 "/>
     <polygon id="_286127448" class="fil1" points="1584,1130.89 2719.88,2266.78 2719.88,2308.61 1584,1172.73 "/>
     <polygon id="_286127304" class="fil1" points="1423.63,1130.89 2559.51,2266.78 2439.23,2571.83 1303.35,1435.95 "/>
     <polygon id="_286127472" class="fil1" points="1513.4,1435.95 2649.28,2571.83 2601.35,2571.83 1465.46,1435.95 "/>
     <polygon id="_286126728" class="fil1" points="1535.63,1174.47 2671.51,2310.35 2576.07,2310.35 1440.19,1174.47 "/>
     <polygon id="_286127040" class="fil1" points="1584,1172.73 2719.88,2308.61 2649.28,2571.83 1513.4,1435.95 "/>
     <polygon id="_286126776" class="fil1" points="1303.35,1435.95 2439.23,2571.83 2397.83,2571.83 1261.95,1435.95 "/>
    </g>
    <path id="_385694344" class="fil1" d="M880.712 607.288c230.144,0 416.712,186.568 416.712,416.712 0,82.0595 -23.7189,158.58 -64.676,223.079l0 89.9469 22.6606 0 0 43.5792 -22.6606 0 0 55.3465 -47.0658 0 0 -55.3465 -89.2548 0c-8.40827,5.09764 -17.0114,9.90591 -25.7965,14.4118l0 40.9347 -126.723 0c-20.6079,3.13583 -41.7118,4.76103 -63.1961,4.76103 -230.144,0 -416.713,-186.568 -416.713,-416.712 0,-230.144 186.569,-416.712 416.713,-416.712zm559.476 523.606l143.813 0 0 41.8359 -70.5993 263.222 -47.9374 0 70.1634 -261.479 -95.4402 0 0 -43.5792zm-16.5602 0l-120.28 305.058 -41.4012 0 120.281 -305.058 41.4 0z"/>
   </g>
  </g>
  <path class="fil2" d="M1024 0c565.538,0 1024,458.462 1024,1024 0,565.538 -458.462,1024 -1024,1024 -565.538,0 -1024,-458.462 -1024,-1024 0,-565.538 458.462,-1024 1024,-1024z"/>
  <ellipse class="fil3" cx="880.712" cy="1024" rx="357.268" ry="357.268"/>
  <path class="fil4" d="M880.712 607.288c230.144,0 416.712,186.568 416.712,416.712 0,230.144 -186.568,416.712 -416.712,416.712 -230.144,0 -416.713,-186.568 -416.713,-416.712 0,-230.144 186.569,-416.712 416.713,-416.712zm0 67.0418c193.119,0 349.672,156.552 349.672,349.67 0,193.119 -156.553,349.67 -349.672,349.67 -193.119,0 -349.672,-156.552 -349.672,-349.67 0,-193.119 156.553,-349.67 349.672,-349.67z"/>
  <path class="fil5" d="M880.712 695.866c181.224,0 328.134,146.91 328.134,328.134 0,181.224 -146.91,328.134 -328.134,328.134 -181.224,0 -328.135,-146.91 -328.135,-328.134 0,-181.224 146.912,-328.134 328.135,-328.134zm0 52.7906c152.068,0 275.344,123.275 275.344,275.344 0,152.068 -123.275,275.344 -275.344,275.344 -152.068,0 -275.344,-123.275 -275.344,-275.344 0,-152.068 123.275,-275.344 275.344,-275.344z"/>
  <path class="fil6" d="M888.072 977.735l-10.8319 -227.467 -10.8319 227.467 0 28.3961c-2.69646,1.67362 -4.97599,3.95433 -6.65079,6.65079l1.16457 0 -227.467 10.8319 227.467 10.8319 -1.16457 0c1.67362,2.69646 3.95433,4.97717 6.65079,6.65079l0 9.18544c0,5.98229 4.84961,10.8331 10.8319,10.8331 5.98229,0 10.8319,-4.85079 10.8319,-10.8331l0 -9.18544c2.69646,-1.6748 4.97599,-3.95551 6.65079,-6.65079l3.0815 0c5.98111,0 10.8319,-4.85079 10.8319,-10.8319 0,-5.98229 -4.85079,-10.8319 -10.8319,-10.8319l-3.08268 0c-1.6748,-2.69646 -3.95433,-4.97599 -6.64961,-6.64961l0 -28.3973z"/>
  <path class="fil7" d="M1027.05 1205.85c-0.0732284,12.4937 -1.81654,23.7508 -5.22993,33.7028 -3.41339,9.94961 -7.99016,19.0288 -13.5827,27.2362 -5.66457,8.28072 -11.8382,16.1244 -18.5929,23.5335 -6.75591,7.48111 -13.4374,14.889 -20.1921,22.3713 -6.75591,7.47993 -12.9295,15.398 -18.5941,23.7508 -5.59371,8.35276 -10.0961,17.5772 -13.5106,27.7453 -3.48662,10.0961 -5.22993,21.4996 -5.30197,34.2827l0 37.4788 138.584 0 0 -43.5792 -90.645 0c-0.218504,-1.09016 -0.36378,-2.17914 -0.36378,-3.26929 -0.0720473,-1.08898 -0.0720473,-2.17914 -0.0720473,-3.26811 0.0720473,-7.11733 1.8874,-14.0906 5.30197,-20.8453 3.41339,-6.75473 7.98898,-13.5106 13.5827,-20.3374 5.66457,-6.82796 11.9114,-13.8732 18.665,-21.2091 6.75591,-7.33583 13.5827,-15.1075 20.3386,-23.315 6.75473,-8.28072 13.0004,-17.2146 18.5929,-26.8016 5.66693,-9.66024 10.2425,-20.1921 13.6559,-31.5957 3.41339,-11.4036 5.22993,-23.9681 5.30197,-37.6229 0,-16.3429 -2.68701,-30.2162 -8.06221,-41.6197 -5.3752,-11.4024 -13.3642,-20.0457 -23.9681,-26.0752 -10.6051,-5.95512 -23.752,-8.93268 -39.4406,-9.00591 -15.6886,0.0732284 -28.8343,3.05079 -39.4394,9.00591 -10.6039,6.02953 -18.5941,14.6728 -23.9693,26.0752 -5.37402,11.4036 -8.06221,25.2768 -8.06221,41.6197l0 29.6339 45.3225 0 0 -32.6847c0.0732284,-10.8224 2.32441,-18.5221 6.68268,-23.2429 4.43032,-4.64882 10.4599,-6.97323 18.1583,-6.82678 5.08465,-0.0732284 9.51497,0.870473 13.2201,2.90433 3.70276,2.03386 6.53623,5.59252 8.57009,10.6772 2.03386,5.08465 3.05079,12.2032 3.05079,21.2811zm66.241 174.755l92.3894 0 0 55.3465 47.0658 0 0 -55.3465 22.6606 0 0 -43.5792 -22.6606 0 0 -206.132 -52.2957 0 -87.1595 206.132 0 43.5792zm44.0162 -43.5792l48.3733 -114.614 0 114.614 -48.3733 0zm124.637 98.9257l41.4012 0 120.28 -305.058 -41.4 0 -120.281 305.058zm178.241 -305.058l0 43.5792 95.4402 0 -70.1634 261.479 47.9374 0 70.5993 -263.222 0 -41.8359 -143.813 0z"/>
  <ellipse class="fil8" cx="877.054" cy="1025.07" rx="12.0751" ry="12.075"/>
  <circle class="fil9" cx="877.054" cy="1025.07" r="4.27244"/>
  <path class="fil10" d="M887.846 700.725c0,-3.93898 -3.19488,-7.13268 -7.13386,-7.13268 -3.94016,0 -7.13386,3.1937 -7.13386,7.13268l0 43.8402c0,3.94016 3.1937,7.13386 7.13386,7.13386 3.93898,0 7.13386,-3.1937 7.13386,-7.13386l0 -43.8402z"/>
  <path class="fil10" d="M554.138 1020.17c-3.94016,0 -7.13386,3.1937 -7.13386,7.13268 0,3.94016 3.1937,7.13386 7.13386,7.13386l43.839 0c3.94016,0 7.13386,-3.1937 7.13386,-7.13386 0,-3.93898 -3.1937,-7.13268 -7.13386,-7.13268l-43.839 0z"/>
  <path class="fil11" d="M654.833 791.332c-2.78504,-2.78504 -7.30276,-2.78504 -10.0878,0 -2.78622,2.78622 -2.78622,7.30276 0,10.089l30.9992 30.9992c2.78504,2.78622 7.30276,2.78622 10.0878,0 2.78622,-2.78622 2.78622,-7.30276 0,-10.089l-30.9992 -30.9992z"/>
  <path class="fil11" d="M654.833 1263.27c-2.78504,2.78504 -7.30276,2.78504 -10.0878,0 -2.78622,-2.78622 -2.78622,-7.30276 0,-10.089l30.9992 -30.9992c2.78504,-2.78622 7.30276,-2.78622 10.0878,0 2.78622,2.78504 2.78622,7.30276 0,10.0878l-30.9992 31.0004z"/>
  <path class="fil10" d="M887.846 1310.03c0,-3.94016 -3.19488,-7.13386 -7.13386,-7.13386 -3.94016,0 -7.13386,3.1937 -7.13386,7.13386l0 43.839c0,3.94016 3.1937,7.13386 7.13386,7.13386 3.93898,0 7.13386,-3.1937 7.13386,-7.13386l0 -43.839z"/>
  <path class="fil10" d="M1163.45 1020.17c-3.93898,0 -7.13268,3.1937 -7.13268,7.13268 0,3.94016 3.1937,7.13386 7.13268,7.13386l43.8402 0c3.94016,0 7.13386,-3.1937 7.13386,-7.13386 0,-3.93898 -3.1937,-7.13268 -7.13386,-7.13268l-43.8402 0z"/>
  <path class="fil11" d="M1085.68 1222.18c-2.78622,-2.78622 -7.30276,-2.78622 -10.089,0 -2.78504,2.78504 -2.78504,7.30276 0,10.0878l31.0004 31.0004c2.78504,2.78504 7.30276,2.78504 10.0878,0 2.78622,-2.78622 2.78622,-7.30276 0,-10.089l-30.9992 -30.9992z"/>
  <path class="fil11" d="M1085.68 832.42c-2.78622,2.78622 -7.30276,2.78622 -10.089,0 -2.78504,-2.78622 -2.78504,-7.30276 0,-10.089l31.0004 -30.9992c2.78504,-2.78504 7.30276,-2.78504 10.0878,0 2.78622,2.78622 2.78622,7.30276 0,10.089l-30.9992 30.9992z"/>
 </g>
</svg>
