<?xml version="1.0" encoding="iso-8859-1"?>
<!-- Generator: Adobe Illustrator 24.0.3, SVG Export Plug-In . SVG Version: 6.00 Build 0)  -->
<svg version="1.1" xmlns="http://www.w3.org/2000/svg" xmlns:xlink="http://www.w3.org/1999/xlink" x="0px" y="0px"
	 viewBox="0 0 64 64" style="enable-background:new 0 0 64 64;" xml:space="preserve">
<g id="achievement-badge-12">
	<path style="fill:#231F20;" d="M42.35,17.017c-0.188-0.574-0.708-0.986-1.299-1.031l-5.421-0.43l-2.088-5.027
		c-0.233-0.547-0.789-0.914-1.38-0.914c-0.591,0-1.147,0.367-1.38,0.914l-2.088,5.027l-5.421,0.43
		c-0.6,0.054-1.12,0.466-1.299,1.031c-0.188,0.565-0.009,1.21,0.448,1.595l4.131,3.54l-1.263,5.287
		c-0.099,0.421-0.009,0.887,0.26,1.246c0.26,0.349,0.681,0.574,1.12,0.591h0.072c0.278,0,0.547-0.072,0.78-0.215l4.642-2.832
		l4.642,2.832c0.502,0.314,1.174,0.287,1.658-0.072c0.484-0.349,0.708-0.977,0.573-1.55l-1.263-5.287l4.131-3.54
		C42.35,18.227,42.538,17.582,42.35,17.017z M35.773,21.498l1.353,5.654l-4.964-3.029l-4.964,3.029l1.353-5.654l-4.418-3.782
		l5.798-0.466l2.231-5.368l2.231,5.368l5.798,0.466L35.773,21.498z M42.35,17.017c-0.188-0.574-0.708-0.986-1.299-1.031l-5.421-0.43
		l-2.088-5.027c-0.233-0.547-0.789-0.914-1.38-0.914c-0.591,0-1.147,0.367-1.38,0.914l-2.088,5.027l-5.421,0.43
		c-0.6,0.054-1.12,0.466-1.299,1.031c-0.188,0.565-0.009,1.21,0.448,1.595l4.131,3.54l-1.263,5.287
		c-0.099,0.421-0.009,0.887,0.26,1.246c0.26,0.349,0.681,0.574,1.12,0.591h0.072c0.278,0,0.547-0.072,0.78-0.215l4.642-2.832
		l4.642,2.832c0.502,0.314,1.174,0.287,1.658-0.072c0.484-0.349,0.708-0.977,0.573-1.55l-1.263-5.287l4.131-3.54
		C42.35,18.227,42.538,17.582,42.35,17.017z M35.773,21.498l1.353,5.654l-4.964-3.029l-4.964,3.029l1.353-5.654l-4.418-3.782
		l5.798-0.466l2.231-5.368l2.231,5.368l5.798,0.466L35.773,21.498z M42.35,17.017c-0.188-0.574-0.708-0.986-1.299-1.031l-5.421-0.43
		l-2.088-5.027c-0.233-0.547-0.789-0.914-1.38-0.914c-0.591,0-1.147,0.367-1.38,0.914l-2.088,5.027l-5.421,0.43
		c-0.6,0.054-1.12,0.466-1.299,1.031c-0.188,0.565-0.009,1.21,0.448,1.595l4.131,3.54l-1.263,5.287
		c-0.099,0.421-0.009,0.887,0.26,1.246c0.26,0.349,0.681,0.574,1.12,0.591h0.072c0.278,0,0.547-0.072,0.78-0.215l4.642-2.832
		l4.642,2.832c0.502,0.314,1.174,0.287,1.658-0.072c0.484-0.349,0.708-0.977,0.573-1.55l-1.263-5.287l4.131-3.54
		C42.35,18.227,42.538,17.582,42.35,17.017z M35.773,21.498l1.353,5.654l-4.964-3.029l-4.964,3.029l1.353-5.654l-4.418-3.782
		l5.798-0.466l2.231-5.368l2.231,5.368l5.798,0.466L35.773,21.498z M42.35,17.017c-0.188-0.574-0.708-0.986-1.299-1.031l-5.421-0.43
		l-2.088-5.027c-0.233-0.547-0.789-0.914-1.38-0.914c-0.591,0-1.147,0.367-1.38,0.914l-2.088,5.027l-5.421,0.43
		c-0.6,0.054-1.12,0.466-1.299,1.031c-0.188,0.565-0.009,1.21,0.448,1.595l4.131,3.54l-1.263,5.287
		c-0.099,0.421-0.009,0.887,0.26,1.246c0.26,0.349,0.681,0.574,1.12,0.591h0.072c0.278,0,0.547-0.072,0.78-0.215l4.642-2.832
		l4.642,2.832c0.502,0.314,1.174,0.287,1.658-0.072c0.484-0.349,0.708-0.977,0.573-1.55l-1.263-5.287l4.131-3.54
		C42.35,18.227,42.538,17.582,42.35,17.017z M35.773,21.498l1.353,5.654l-4.964-3.029l-4.964,3.029l1.353-5.654l-4.418-3.782
		l5.798-0.466l2.231-5.368l2.231,5.368l5.798,0.466L35.773,21.498z M32.161,3.163c-9.328,0-16.91,7.59-16.91,16.919
		c0,9.32,7.581,16.91,16.91,16.91s16.91-7.59,16.91-16.91C49.071,10.753,41.49,3.163,32.161,3.163z M32.161,35.199
		c-8.334,0-15.117-6.784-15.117-15.117c0-8.343,6.784-15.126,15.117-15.126s15.117,6.784,15.117,15.126
		C47.279,28.416,40.495,35.199,32.161,35.199z M41.051,15.987l-5.421-0.43l-2.088-5.027c-0.233-0.547-0.789-0.914-1.38-0.914
		c-0.591,0-1.147,0.367-1.38,0.914l-2.088,5.027l-5.421,0.43c-0.6,0.054-1.12,0.466-1.299,1.031
		c-0.188,0.565-0.009,1.21,0.448,1.595l4.131,3.54l-1.263,5.287c-0.099,0.421-0.009,0.887,0.26,1.246
		c0.26,0.349,0.681,0.574,1.12,0.591h0.072c0.278,0,0.547-0.072,0.78-0.215l4.642-2.832l4.642,2.832
		c0.502,0.314,1.174,0.287,1.658-0.072c0.484-0.349,0.708-0.977,0.573-1.55l-1.263-5.287l4.131-3.54
		c0.448-0.385,0.636-1.03,0.448-1.595C42.162,16.444,41.642,16.031,41.051,15.987z M35.773,21.498l1.353,5.654l-4.964-3.029
		l-4.964,3.029l1.353-5.654l-4.418-3.782l5.798-0.466l2.231-5.368l2.231,5.368l5.798,0.466L35.773,21.498z M42.35,17.017
		c-0.188-0.574-0.708-0.986-1.299-1.031l-5.421-0.43l-2.088-5.027c-0.233-0.547-0.789-0.914-1.38-0.914
		c-0.591,0-1.147,0.367-1.38,0.914l-2.088,5.027l-5.421,0.43c-0.6,0.054-1.12,0.466-1.299,1.031
		c-0.188,0.565-0.009,1.21,0.448,1.595l4.131,3.54l-1.263,5.287c-0.099,0.421-0.009,0.887,0.26,1.246
		c0.26,0.349,0.681,0.574,1.12,0.591h0.072c0.278,0,0.547-0.072,0.78-0.215l4.642-2.832l4.642,2.832
		c0.502,0.314,1.174,0.287,1.658-0.072c0.484-0.349,0.708-0.977,0.573-1.55l-1.263-5.287l4.131-3.54
		C42.35,18.227,42.538,17.582,42.35,17.017z M35.773,21.498l1.353,5.654l-4.964-3.029l-4.964,3.029l1.353-5.654l-4.418-3.782
		l5.798-0.466l2.231-5.368l2.231,5.368l5.798,0.466L35.773,21.498z M42.35,17.017c-0.188-0.574-0.708-0.986-1.299-1.031l-5.421-0.43
		l-2.088-5.027c-0.233-0.547-0.789-0.914-1.38-0.914c-0.591,0-1.147,0.367-1.38,0.914l-2.088,5.027l-5.421,0.43
		c-0.6,0.054-1.12,0.466-1.299,1.031c-0.188,0.565-0.009,1.21,0.448,1.595l4.131,3.54l-1.263,5.287
		c-0.099,0.421-0.009,0.887,0.26,1.246c0.26,0.349,0.681,0.574,1.12,0.591h0.072c0.278,0,0.547-0.072,0.78-0.215l4.642-2.832
		l4.642,2.832c0.502,0.314,1.174,0.287,1.658-0.072c0.484-0.349,0.708-0.977,0.573-1.55l-1.263-5.287l4.131-3.54
		C42.35,18.227,42.538,17.582,42.35,17.017z M35.773,21.498l1.353,5.654l-4.964-3.029l-4.964,3.029l1.353-5.654l-4.418-3.782
		l5.798-0.466l2.231-5.368l2.231,5.368l5.798,0.466L35.773,21.498z M42.35,17.017c-0.188-0.574-0.708-0.986-1.299-1.031l-5.421-0.43
		l-2.088-5.027c-0.233-0.547-0.789-0.914-1.38-0.914c-0.591,0-1.147,0.367-1.38,0.914l-2.088,5.027l-5.421,0.43
		c-0.6,0.054-1.12,0.466-1.299,1.031c-0.188,0.565-0.009,1.21,0.448,1.595l4.131,3.54l-1.263,5.287
		c-0.099,0.421-0.009,0.887,0.26,1.246c0.26,0.349,0.681,0.574,1.12,0.591h0.072c0.278,0,0.547-0.072,0.78-0.215l4.642-2.832
		l4.642,2.832c0.502,0.314,1.174,0.287,1.658-0.072c0.484-0.349,0.708-0.977,0.573-1.55l-1.263-5.287l4.131-3.54
		C42.35,18.227,42.538,17.582,42.35,17.017z M35.773,21.498l1.353,5.654l-4.964-3.029l-4.964,3.029l1.353-5.654l-4.418-3.782
		l5.798-0.466l2.231-5.368l2.231,5.368l5.798,0.466L35.773,21.498z M42.35,17.017c-0.188-0.574-0.708-0.986-1.299-1.031l-5.421-0.43
		l-2.088-5.027c-0.233-0.547-0.789-0.914-1.38-0.914c-0.591,0-1.147,0.367-1.38,0.914l-2.088,5.027l-5.421,0.43
		c-0.6,0.054-1.12,0.466-1.299,1.031c-0.188,0.565-0.009,1.21,0.448,1.595l4.131,3.54l-1.263,5.287
		c-0.099,0.421-0.009,0.887,0.26,1.246c0.26,0.349,0.681,0.574,1.12,0.591h0.072c0.278,0,0.547-0.072,0.78-0.215l4.642-2.832
		l4.642,2.832c0.502,0.314,1.174,0.287,1.658-0.072c0.484-0.349,0.708-0.977,0.573-1.55l-1.263-5.287l4.131-3.54
		C42.35,18.227,42.538,17.582,42.35,17.017z M35.773,21.498l1.353,5.654l-4.964-3.029l-4.964,3.029l1.353-5.654l-4.418-3.782
		l5.798-0.466l2.231-5.368l2.231,5.368l5.798,0.466L35.773,21.498z M32.161,3.163c-9.328,0-16.91,7.59-16.91,16.919
		c0,9.32,7.581,16.91,16.91,16.91s16.91-7.59,16.91-16.91C49.071,10.753,41.49,3.163,32.161,3.163z M32.161,35.199
		c-8.334,0-15.117-6.784-15.117-15.117c0-8.343,6.784-15.126,15.117-15.126s15.117,6.784,15.117,15.126
		C47.279,28.416,40.495,35.199,32.161,35.199z M41.051,15.987l-5.421-0.43l-2.088-5.027c-0.233-0.547-0.789-0.914-1.38-0.914
		c-0.591,0-1.147,0.367-1.38,0.914l-2.088,5.027l-5.421,0.43c-0.6,0.054-1.12,0.466-1.299,1.031
		c-0.188,0.565-0.009,1.21,0.448,1.595l4.131,3.54l-1.263,5.287c-0.099,0.421-0.009,0.887,0.26,1.246
		c0.26,0.349,0.681,0.574,1.12,0.591h0.072c0.278,0,0.547-0.072,0.78-0.215l4.642-2.832l4.642,2.832
		c0.502,0.314,1.174,0.287,1.658-0.072c0.484-0.349,0.708-0.977,0.573-1.55l-1.263-5.287l4.131-3.54
		c0.448-0.385,0.636-1.03,0.448-1.595C42.162,16.444,41.642,16.031,41.051,15.987z M35.773,21.498l1.353,5.654l-4.964-3.029
		l-4.964,3.029l1.353-5.654l-4.418-3.782l5.798-0.466l2.231-5.368l2.231,5.368l5.798,0.466L35.773,21.498z M42.35,17.017
		c-0.188-0.574-0.708-0.986-1.299-1.031l-5.421-0.43l-2.088-5.027c-0.233-0.547-0.789-0.914-1.38-0.914
		c-0.591,0-1.147,0.367-1.38,0.914l-2.088,5.027l-5.421,0.43c-0.6,0.054-1.12,0.466-1.299,1.031
		c-0.188,0.565-0.009,1.21,0.448,1.595l4.131,3.54l-1.263,5.287c-0.099,0.421-0.009,0.887,0.26,1.246
		c0.26,0.349,0.681,0.574,1.12,0.591h0.072c0.278,0,0.547-0.072,0.78-0.215l4.642-2.832l4.642,2.832
		c0.502,0.314,1.174,0.287,1.658-0.072c0.484-0.349,0.708-0.977,0.573-1.55l-1.263-5.287l4.131-3.54
		C42.35,18.227,42.538,17.582,42.35,17.017z M35.773,21.498l1.353,5.654l-4.964-3.029l-4.964,3.029l1.353-5.654l-4.418-3.782
		l5.798-0.466l2.231-5.368l2.231,5.368l5.798,0.466L35.773,21.498z M42.35,17.017c-0.188-0.574-0.708-0.986-1.299-1.031l-5.421-0.43
		l-2.088-5.027c-0.233-0.547-0.789-0.914-1.38-0.914c-0.591,0-1.147,0.367-1.38,0.914l-2.088,5.027l-5.421,0.43
		c-0.6,0.054-1.12,0.466-1.299,1.031c-0.188,0.565-0.009,1.21,0.448,1.595l4.131,3.54l-1.263,5.287
		c-0.099,0.421-0.009,0.887,0.26,1.246c0.26,0.349,0.681,0.574,1.12,0.591h0.072c0.278,0,0.547-0.072,0.78-0.215l4.642-2.832
		l4.642,2.832c0.502,0.314,1.174,0.287,1.658-0.072c0.484-0.349,0.708-0.977,0.573-1.55l-1.263-5.287l4.131-3.54
		C42.35,18.227,42.538,17.582,42.35,17.017z M35.773,21.498l1.353,5.654l-4.964-3.029l-4.964,3.029l1.353-5.654l-4.418-3.782
		l5.798-0.466l2.231-5.368l2.231,5.368l5.798,0.466L35.773,21.498z M42.35,17.017c-0.188-0.574-0.708-0.986-1.299-1.031l-5.421-0.43
		l-2.088-5.027c-0.233-0.547-0.789-0.914-1.38-0.914c-0.591,0-1.147,0.367-1.38,0.914l-2.088,5.027l-5.421,0.43
		c-0.6,0.054-1.12,0.466-1.299,1.031c-0.188,0.565-0.009,1.21,0.448,1.595l4.131,3.54l-1.263,5.287
		c-0.099,0.421-0.009,0.887,0.26,1.246c0.26,0.349,0.681,0.574,1.12,0.591h0.072c0.278,0,0.547-0.072,0.78-0.215l4.642-2.832
		l4.642,2.832c0.502,0.314,1.174,0.287,1.658-0.072c0.484-0.349,0.708-0.977,0.573-1.55l-1.263-5.287l4.131-3.54
		C42.35,18.227,42.538,17.582,42.35,17.017z M35.773,21.498l1.353,5.654l-4.964-3.029l-4.964,3.029l1.353-5.654l-4.418-3.782
		l5.798-0.466l2.231-5.368l2.231,5.368l5.798,0.466L35.773,21.498z M42.35,17.017c-0.188-0.574-0.708-0.986-1.299-1.031l-5.421-0.43
		l-2.088-5.027c-0.233-0.547-0.789-0.914-1.38-0.914c-0.591,0-1.147,0.367-1.38,0.914l-2.088,5.027l-5.421,0.43
		c-0.6,0.054-1.12,0.466-1.299,1.031c-0.188,0.565-0.009,1.21,0.448,1.595l4.131,3.54l-1.263,5.287
		c-0.099,0.421-0.009,0.887,0.26,1.246c0.26,0.349,0.681,0.574,1.12,0.591h0.072c0.278,0,0.547-0.072,0.78-0.215l4.642-2.832
		l4.642,2.832c0.502,0.314,1.174,0.287,1.658-0.072c0.484-0.349,0.708-0.977,0.573-1.55l-1.263-5.287l4.131-3.54
		C42.35,18.227,42.538,17.582,42.35,17.017z M35.773,21.498l1.353,5.654l-4.964-3.029l-4.964,3.029l1.353-5.654l-4.418-3.782
		l5.798-0.466l2.231-5.368l2.231,5.368l5.798,0.466L35.773,21.498z M32.161,3.163c-9.328,0-16.91,7.59-16.91,16.919
		c0,9.32,7.581,16.91,16.91,16.91s16.91-7.59,16.91-16.91C49.071,10.753,41.49,3.163,32.161,3.163z M32.161,35.199
		c-8.334,0-15.117-6.784-15.117-15.117c0-8.343,6.784-15.126,15.117-15.126s15.117,6.784,15.117,15.126
		C47.279,28.416,40.495,35.199,32.161,35.199z M41.051,15.987l-5.421-0.43l-2.088-5.027c-0.233-0.547-0.789-0.914-1.38-0.914
		c-0.591,0-1.147,0.367-1.38,0.914l-2.088,5.027l-5.421,0.43c-0.6,0.054-1.12,0.466-1.299,1.031
		c-0.188,0.565-0.009,1.21,0.448,1.595l4.131,3.54l-1.263,5.287c-0.099,0.421-0.009,0.887,0.26,1.246
		c0.26,0.349,0.681,0.574,1.12,0.591h0.072c0.278,0,0.547-0.072,0.78-0.215l4.642-2.832l4.642,2.832
		c0.502,0.314,1.174,0.287,1.658-0.072c0.484-0.349,0.708-0.977,0.573-1.55l-1.263-5.287l4.131-3.54
		c0.448-0.385,0.636-1.03,0.448-1.595C42.162,16.444,41.642,16.031,41.051,15.987z M35.773,21.498l1.353,5.654l-4.964-3.029
		l-4.964,3.029l1.353-5.654l-4.418-3.782l5.798-0.466l2.231-5.368l2.231,5.368l5.798,0.466L35.773,21.498z M32.161,3.163
		c-9.328,0-16.91,7.59-16.91,16.919c0,9.32,7.581,16.91,16.91,16.91s16.91-7.59,16.91-16.91C49.071,10.753,41.49,3.163,32.161,3.163
		z M32.161,35.199c-8.334,0-15.117-6.784-15.117-15.117c0-8.343,6.784-15.126,15.117-15.126s15.117,6.784,15.117,15.126
		C47.279,28.416,40.495,35.199,32.161,35.199z M41.051,15.987l-5.421-0.43l-2.088-5.027c-0.233-0.547-0.789-0.914-1.38-0.914
		c-0.591,0-1.147,0.367-1.38,0.914l-2.088,5.027l-5.421,0.43c-0.6,0.054-1.12,0.466-1.299,1.031
		c-0.188,0.565-0.009,1.21,0.448,1.595l4.131,3.54l-1.263,5.287c-0.099,0.421-0.009,0.887,0.26,1.246
		c0.26,0.349,0.681,0.574,1.12,0.591h0.072c0.278,0,0.547-0.072,0.78-0.215l4.642-2.832l4.642,2.832
		c0.502,0.314,1.174,0.287,1.658-0.072c0.484-0.349,0.708-0.977,0.573-1.55l-1.263-5.287l4.131-3.54
		c0.448-0.385,0.636-1.03,0.448-1.595C42.162,16.444,41.642,16.031,41.051,15.987z M35.773,21.498l1.353,5.654l-4.964-3.029
		l-4.964,3.029l1.353-5.654l-4.418-3.782l5.798-0.466l2.231-5.368l2.231,5.368l5.798,0.466L35.773,21.498z M56.921,56.535
		L46.23,34.384c3.71-3.647,6.013-8.71,6.013-14.302C52.243,9.006,43.228,0,32.161,0C21.085,0,12.08,9.006,12.08,20.082
		c0,5.484,2.213,10.458,5.798,14.087L7.079,56.535c-0.152,0.323-0.099,0.708,0.134,0.977c0.233,0.269,0.609,0.376,0.95,0.269
		l8.522-2.724l3.172,8.37c0.125,0.332,0.439,0.556,0.797,0.574h0.036c0.349,0,0.663-0.197,0.806-0.502L32,41.732l10.493,21.766
		C42.646,63.803,42.959,64,43.3,64h0.045c0.358-0.018,0.672-0.242,0.798-0.574l3.172-8.37l8.522,2.724
		c0.341,0.108,0.717,0,0.95-0.269C57.019,57.243,57.073,56.858,56.921,56.535z M20.79,60.837l-2.733-7.214
		c-0.17-0.439-0.654-0.681-1.111-0.529l-7.348,2.348l9.651-20.001c3.172,2.661,7.169,4.364,11.542,4.66L20.79,60.837z
		 M13.872,20.082c0-10.09,8.208-18.29,18.29-18.29s18.29,8.199,18.29,18.29c0,10.081-8.208,18.281-18.29,18.281
		S13.872,30.163,13.872,20.082z M47.055,53.094c-0.457-0.152-0.95,0.09-1.111,0.529l-2.742,7.214l-9.983-20.709
		c4.391-0.224,8.414-1.882,11.623-4.498l9.552,19.813L47.055,53.094z M32.161,3.163c-9.328,0-16.91,7.59-16.91,16.919
		c0,9.32,7.581,16.91,16.91,16.91s16.91-7.59,16.91-16.91C49.071,10.753,41.49,3.163,32.161,3.163z M32.161,35.199
		c-8.334,0-15.117-6.784-15.117-15.117c0-8.343,6.784-15.126,15.117-15.126s15.117,6.784,15.117,15.126
		C47.279,28.416,40.495,35.199,32.161,35.199z M41.051,15.987l-5.421-0.43l-2.088-5.027c-0.233-0.547-0.789-0.914-1.38-0.914
		c-0.591,0-1.147,0.367-1.38,0.914l-2.088,5.027l-5.421,0.43c-0.6,0.054-1.12,0.466-1.299,1.031
		c-0.188,0.565-0.009,1.21,0.448,1.595l4.131,3.54l-1.263,5.287c-0.099,0.421-0.009,0.887,0.26,1.246
		c0.26,0.349,0.681,0.574,1.12,0.591h0.072c0.278,0,0.547-0.072,0.78-0.215l4.642-2.832l4.642,2.832
		c0.502,0.314,1.174,0.287,1.658-0.072c0.484-0.349,0.708-0.977,0.573-1.55l-1.263-5.287l4.131-3.54
		c0.448-0.385,0.636-1.03,0.448-1.595C42.162,16.444,41.642,16.031,41.051,15.987z M35.773,21.498l1.353,5.654l-4.964-3.029
		l-4.964,3.029l1.353-5.654l-4.418-3.782l5.798-0.466l2.231-5.368l2.231,5.368l5.798,0.466L35.773,21.498z M42.35,17.017
		c-0.188-0.574-0.708-0.986-1.299-1.031l-5.421-0.43l-2.088-5.027c-0.233-0.547-0.789-0.914-1.38-0.914
		c-0.591,0-1.147,0.367-1.38,0.914l-2.088,5.027l-5.421,0.43c-0.6,0.054-1.12,0.466-1.299,1.031
		c-0.188,0.565-0.009,1.21,0.448,1.595l4.131,3.54l-1.263,5.287c-0.099,0.421-0.009,0.887,0.26,1.246
		c0.26,0.349,0.681,0.574,1.12,0.591h0.072c0.278,0,0.547-0.072,0.78-0.215l4.642-2.832l4.642,2.832
		c0.502,0.314,1.174,0.287,1.658-0.072c0.484-0.349,0.708-0.977,0.573-1.55l-1.263-5.287l4.131-3.54
		C42.35,18.227,42.538,17.582,42.35,17.017z M35.773,21.498l1.353,5.654l-4.964-3.029l-4.964,3.029l1.353-5.654l-4.418-3.782
		l5.798-0.466l2.231-5.368l2.231,5.368l5.798,0.466L35.773,21.498z M42.35,17.017c-0.188-0.574-0.708-0.986-1.299-1.031l-5.421-0.43
		l-2.088-5.027c-0.233-0.547-0.789-0.914-1.38-0.914c-0.591,0-1.147,0.367-1.38,0.914l-2.088,5.027l-5.421,0.43
		c-0.6,0.054-1.12,0.466-1.299,1.031c-0.188,0.565-0.009,1.21,0.448,1.595l4.131,3.54l-1.263,5.287
		c-0.099,0.421-0.009,0.887,0.26,1.246c0.26,0.349,0.681,0.574,1.12,0.591h0.072c0.278,0,0.547-0.072,0.78-0.215l4.642-2.832
		l4.642,2.832c0.502,0.314,1.174,0.287,1.658-0.072c0.484-0.349,0.708-0.977,0.573-1.55l-1.263-5.287l4.131-3.54
		C42.35,18.227,42.538,17.582,42.35,17.017z M35.773,21.498l1.353,5.654l-4.964-3.029l-4.964,3.029l1.353-5.654l-4.418-3.782
		l5.798-0.466l2.231-5.368l2.231,5.368l5.798,0.466L35.773,21.498z M32.161,3.163c-9.328,0-16.91,7.59-16.91,16.919
		c0,9.32,7.581,16.91,16.91,16.91s16.91-7.59,16.91-16.91C49.071,10.753,41.49,3.163,32.161,3.163z M32.161,35.199
		c-8.334,0-15.117-6.784-15.117-15.117c0-8.343,6.784-15.126,15.117-15.126s15.117,6.784,15.117,15.126
		C47.279,28.416,40.495,35.199,32.161,35.199z M41.051,15.987l-5.421-0.43l-2.088-5.027c-0.233-0.547-0.789-0.914-1.38-0.914
		c-0.591,0-1.147,0.367-1.38,0.914l-2.088,5.027l-5.421,0.43c-0.6,0.054-1.12,0.466-1.299,1.031
		c-0.188,0.565-0.009,1.21,0.448,1.595l4.131,3.54l-1.263,5.287c-0.099,0.421-0.009,0.887,0.26,1.246
		c0.26,0.349,0.681,0.574,1.12,0.591h0.072c0.278,0,0.547-0.072,0.78-0.215l4.642-2.832l4.642,2.832
		c0.502,0.314,1.174,0.287,1.658-0.072c0.484-0.349,0.708-0.977,0.573-1.55l-1.263-5.287l4.131-3.54
		c0.448-0.385,0.636-1.03,0.448-1.595C42.162,16.444,41.642,16.031,41.051,15.987z M35.773,21.498l1.353,5.654l-4.964-3.029
		l-4.964,3.029l1.353-5.654l-4.418-3.782l5.798-0.466l2.231-5.368l2.231,5.368l5.798,0.466L35.773,21.498z M42.35,17.017
		c-0.188-0.574-0.708-0.986-1.299-1.031l-5.421-0.43l-2.088-5.027c-0.233-0.547-0.789-0.914-1.38-0.914
		c-0.591,0-1.147,0.367-1.38,0.914l-2.088,5.027l-5.421,0.43c-0.6,0.054-1.12,0.466-1.299,1.031
		c-0.188,0.565-0.009,1.21,0.448,1.595l4.131,3.54l-1.263,5.287c-0.099,0.421-0.009,0.887,0.26,1.246
		c0.26,0.349,0.681,0.574,1.12,0.591h0.072c0.278,0,0.547-0.072,0.78-0.215l4.642-2.832l4.642,2.832
		c0.502,0.314,1.174,0.287,1.658-0.072c0.484-0.349,0.708-0.977,0.573-1.55l-1.263-5.287l4.131-3.54
		C42.35,18.227,42.538,17.582,42.35,17.017z M35.773,21.498l1.353,5.654l-4.964-3.029l-4.964,3.029l1.353-5.654l-4.418-3.782
		l5.798-0.466l2.231-5.368l2.231,5.368l5.798,0.466L35.773,21.498z M42.35,17.017c-0.188-0.574-0.708-0.986-1.299-1.031l-5.421-0.43
		l-2.088-5.027c-0.233-0.547-0.789-0.914-1.38-0.914c-0.591,0-1.147,0.367-1.38,0.914l-2.088,5.027l-5.421,0.43
		c-0.6,0.054-1.12,0.466-1.299,1.031c-0.188,0.565-0.009,1.21,0.448,1.595l4.131,3.54l-1.263,5.287
		c-0.099,0.421-0.009,0.887,0.26,1.246c0.26,0.349,0.681,0.574,1.12,0.591h0.072c0.278,0,0.547-0.072,0.78-0.215l4.642-2.832
		l4.642,2.832c0.502,0.314,1.174,0.287,1.658-0.072c0.484-0.349,0.708-0.977,0.573-1.55l-1.263-5.287l4.131-3.54
		C42.35,18.227,42.538,17.582,42.35,17.017z M35.773,21.498l1.353,5.654l-4.964-3.029l-4.964,3.029l1.353-5.654l-4.418-3.782
		l5.798-0.466l2.231-5.368l2.231,5.368l5.798,0.466L35.773,21.498z M32.161,3.163c-9.328,0-16.91,7.59-16.91,16.919
		c0,9.32,7.581,16.91,16.91,16.91s16.91-7.59,16.91-16.91C49.071,10.753,41.49,3.163,32.161,3.163z M32.161,35.199
		c-8.334,0-15.117-6.784-15.117-15.117c0-8.343,6.784-15.126,15.117-15.126s15.117,6.784,15.117,15.126
		C47.279,28.416,40.495,35.199,32.161,35.199z M41.051,15.987l-5.421-0.43l-2.088-5.027c-0.233-0.547-0.789-0.914-1.38-0.914
		c-0.591,0-1.147,0.367-1.38,0.914l-2.088,5.027l-5.421,0.43c-0.6,0.054-1.12,0.466-1.299,1.031
		c-0.188,0.565-0.009,1.21,0.448,1.595l4.131,3.54l-1.263,5.287c-0.099,0.421-0.009,0.887,0.26,1.246
		c0.26,0.349,0.681,0.574,1.12,0.591h0.072c0.278,0,0.547-0.072,0.78-0.215l4.642-2.832l4.642,2.832
		c0.502,0.314,1.174,0.287,1.658-0.072c0.484-0.349,0.708-0.977,0.573-1.55l-1.263-5.287l4.131-3.54
		c0.448-0.385,0.636-1.03,0.448-1.595C42.162,16.444,41.642,16.031,41.051,15.987z M35.773,21.498l1.353,5.654l-4.964-3.029
		l-4.964,3.029l1.353-5.654l-4.418-3.782l5.798-0.466l2.231-5.368l2.231,5.368l5.798,0.466L35.773,21.498z M42.35,17.017
		c-0.188-0.574-0.708-0.986-1.299-1.031l-5.421-0.43l-2.088-5.027c-0.233-0.547-0.789-0.914-1.38-0.914
		c-0.591,0-1.147,0.367-1.38,0.914l-2.088,5.027l-5.421,0.43c-0.6,0.054-1.12,0.466-1.299,1.031
		c-0.188,0.565-0.009,1.21,0.448,1.595l4.131,3.54l-1.263,5.287c-0.099,0.421-0.009,0.887,0.26,1.246
		c0.26,0.349,0.681,0.574,1.12,0.591h0.072c0.278,0,0.547-0.072,0.78-0.215l4.642-2.832l4.642,2.832
		c0.502,0.314,1.174,0.287,1.658-0.072c0.484-0.349,0.708-0.977,0.573-1.55l-1.263-5.287l4.131-3.54
		C42.35,18.227,42.538,17.582,42.35,17.017z M35.773,21.498l1.353,5.654l-4.964-3.029l-4.964,3.029l1.353-5.654l-4.418-3.782
		l5.798-0.466l2.231-5.368l2.231,5.368l5.798,0.466L35.773,21.498z M42.35,17.017c-0.188-0.574-0.708-0.986-1.299-1.031l-5.421-0.43
		l-2.088-5.027c-0.233-0.547-0.789-0.914-1.38-0.914c-0.591,0-1.147,0.367-1.38,0.914l-2.088,5.027l-5.421,0.43
		c-0.6,0.054-1.12,0.466-1.299,1.031c-0.188,0.565-0.009,1.21,0.448,1.595l4.131,3.54l-1.263,5.287
		c-0.099,0.421-0.009,0.887,0.26,1.246c0.26,0.349,0.681,0.574,1.12,0.591h0.072c0.278,0,0.547-0.072,0.78-0.215l4.642-2.832
		l4.642,2.832c0.502,0.314,1.174,0.287,1.658-0.072c0.484-0.349,0.708-0.977,0.573-1.55l-1.263-5.287l4.131-3.54
		C42.35,18.227,42.538,17.582,42.35,17.017z M35.773,21.498l1.353,5.654l-4.964-3.029l-4.964,3.029l1.353-5.654l-4.418-3.782
		l5.798-0.466l2.231-5.368l2.231,5.368l5.798,0.466L35.773,21.498z"/>
	<path style="fill:#EF6825;" d="M54.394,55.442l-7.339-2.348c-0.457-0.152-0.95,0.09-1.111,0.529l-2.742,7.214l-9.983-20.709
		c4.391-0.224,8.414-1.882,11.623-4.498L54.394,55.442z M19.248,35.441L9.597,55.442l7.348-2.348
		c0.457-0.152,0.941,0.09,1.111,0.529l2.733,7.214L30.79,40.101C26.417,39.805,22.421,38.102,19.248,35.441z M40.19,17.716
		l-5.798-0.466l-2.231-5.368L29.93,17.25l-5.798,0.466l4.418,3.782l-1.353,5.654l4.964-3.029l4.964,3.029l-1.353-5.654L40.19,17.716
		z"/>
</g>
<g id="Layer_1">
</g>
</svg>
