<?xml version="1.0" encoding="UTF-8"?>
<!DOCTYPE svg PUBLIC "-//W3C//DTD SVG 1.1//EN" "http://www.w3.org/Graphics/SVG/1.1/DTD/svg11.dtd">
<!-- Creator: CorelDRAW -->
<svg xmlns="http://www.w3.org/2000/svg" xml:space="preserve" width="2048px" height="2048px" style="shape-rendering:geometricPrecision; text-rendering:geometricPrecision; image-rendering:optimizeQuality; fill-rule:evenodd; clip-rule:evenodd"
viewBox="0 0 2048 2048"
 xmlns:xlink="http://www.w3.org/1999/xlink">
 <defs>
  <style type="text/css">
   <![CDATA[
    .fil2 {fill:none}
    .fil1 {fill:#00897B}
    .fil0 {fill:#4DB6AC}
    .fil9 {fill:#BF360C}
    .fil5 {fill:#CFCFCE}
    .fil4 {fill:#E6E6E5}
    .fil6 {fill:#F4511E}
    .fil3 {fill:#FFFFFE}
    .fil8 {fill:#DD2C00;fill-rule:nonzero}
    .fil7 {fill:#FF3D00;fill-rule:nonzero}
   ]]>
  </style>
   <clipPath id="id0">
    <path d="M1024 0c565.538,0 1024,458.462 1024,1024 0,565.538 -458.462,1024 -1024,1024 -565.538,0 -1024,-458.462 -1024,-1024 0,-565.538 458.462,-1024 1024,-1024z"/>
   </clipPath>
 </defs>
 <g id="Layer_x0020_1">
  <metadata id="CorelCorpID_0Corel-Layer"/>
  <path class="fil0" d="M1024 0c565.538,0 1024,458.462 1024,1024 0,565.538 -458.462,1024 -1024,1024 -565.538,0 -1024,-458.462 -1024,-1024 0,-565.538 458.462,-1024 1024,-1024z"/>
  <g style="clip-path:url(#id0)">
   <g id="_385693456">
    <g>
     <polygon id="_3649964401" class="fil1" points="1373.13,727.888 2509.01,1863.77 2492.27,1845.27 2474.64,1827.65 2456.14,1810.93 2436.82,1795.16 2416.71,1780.36 2395.85,1766.58 2374.28,1753.85 2352.04,1742.2 2329.16,1731.68 2305.68,1722.3 2281.63,1714.12 2257.06,1707.17 2232.01,1701.47 2206.5,1697.07 2180.57,1694.01 2154.27,1692.31 2127.63,1692.02 2100.69,1693.16 2099.34,1693.26 2098,1693.35 2096.66,1693.46 2095.31,1693.56 2093.97,1693.67 2092.63,1693.78 2091.29,1693.9 2089.95,1694.02 2088.6,1694.14 2087.26,1694.27 2085.92,1694.4 2084.58,1694.53 2083.24,1694.67 2081.9,1694.81 2080.56,1694.96 2079.22,1695.1 2077.88,1695.26 2076.55,1695.41 2075.21,1695.57 2073.87,1695.73 2072.54,1695.9 2071.2,1696.07 2069.86,1696.24 2068.53,1696.42 2067.19,1696.6 2065.86,1696.78 2064.52,1696.97 2063.19,1697.16 2061.86,1697.36 2060.53,1697.56 2059.19,1697.76 2057.86,1697.97 921.981,562.084 923.312,561.878 924.644,561.675 925.977,561.476 927.309,561.282 928.642,561.09 929.977,560.902 931.311,560.718 932.646,560.537 933.981,560.36 935.317,560.187 936.654,560.017 937.991,559.851 939.328,559.688 940.665,559.53 942.003,559.374 943.342,559.222 944.681,559.074 946.02,558.93 947.361,558.788 948.7,558.651 950.04,558.517 951.381,558.387 952.723,558.26 954.065,558.136 955.406,558.017 956.748,557.901 958.091,557.789 959.433,557.679 960.776,557.574 962.12,557.472 963.463,557.373 964.807,557.279 991.75,556.134 1018.39,556.428 1044.69,558.127 1070.62,561.192 1096.13,565.589 1121.18,571.283 1145.75,578.239 1169.8,586.42 1193.28,595.793 1216.16,606.321 1238.4,617.969 1259.97,630.701 1280.83,644.482 1300.94,659.278 1320.26,675.051 1338.76,691.767 1356.39,709.392 "/>
     <polygon id="_364996800" class="fil1" points="921.981,562.084 2057.86,1697.97 2055.52,1698.27 2053.2,1698.45 2050.89,1698.52 2048.6,1698.47 2046.34,1698.3 2044.09,1698.03 2041.88,1697.64 2039.7,1697.15 2037.56,1696.56 2035.45,1695.86 2033.39,1695.07 2031.37,1694.17 2029.4,1693.19 2027.48,1692.11 2025.62,1690.94 2023.81,1689.68 2022.07,1688.34 2020.39,1686.92 2018.78,1685.42 2017.25,1683.84 881.365,547.96 882.903,549.538 884.512,551.04 886.189,552.462 887.931,553.802 889.735,555.057 891.597,556.225 893.515,557.304 895.485,558.29 897.504,559.183 899.568,559.979 901.674,560.674 903.819,561.27 906,561.761 908.213,562.146 910.455,562.421 912.721,562.585 915.011,562.637 917.319,562.571 919.644,562.388 "/>
     <polygon id="_364999728" class="fil1" points="1215.66,838.586 2351.54,1974.47 2340.03,1962.74 2327.92,1951.63 2315.25,1941.18 2302.03,1931.41 2288.31,1922.34 2274.1,1913.99 2259.44,1906.4 2244.35,1899.57 2228.87,1893.55 2213.02,1888.35 2196.82,1884 2180.32,1880.52 2163.53,1877.94 2146.49,1876.28 2129.21,1875.56 2111.74,1875.82 2094.1,1877.07 2076.32,1879.34 2073.98,1879.64 2071.66,1879.83 2069.35,1879.89 2067.06,1879.84 2064.79,1879.68 2062.55,1879.4 2060.34,1879.01 2058.16,1878.52 2056.01,1877.93 2053.91,1877.23 2051.84,1876.44 2049.82,1875.54 2047.85,1874.56 2045.94,1873.48 2044.07,1872.31 2042.27,1871.05 2040.53,1869.71 2038.85,1868.29 2037.24,1866.79 2035.7,1865.21 899.822,729.33 901.359,730.909 902.968,732.41 904.645,733.832 906.387,735.172 908.192,736.427 910.054,737.595 911.972,738.674 913.942,739.661 915.961,740.553 918.024,741.349 920.131,742.046 922.276,742.641 924.457,743.131 926.669,743.516 928.911,743.793 931.178,743.957 933.468,744.008 935.776,743.943 938.101,743.76 940.438,743.455 958.222,741.186 975.863,739.936 993.333,739.681 1010.61,740.397 1027.65,742.058 1044.44,744.64 1060.94,748.119 1077.14,752.469 1092.99,757.668 1108.47,763.692 1123.56,770.513 1138.22,778.11 1152.43,786.455 1166.15,795.529 1179.37,805.301 1192.04,815.751 1204.15,826.855 "/>
     <path id="_364999536" class="fil1" d="M1943.5 2023.24l0 0zm-1135.88 -1135.88l0 0z"/>
     <polygon id="_364999392" class="fil1" points="675.507,722.877 1811.39,1858.76 1814.66,1862.02 1817.93,1865.29 1821.17,1868.58 1824.4,1871.89 1827.62,1875.22 1830.82,1878.56 1834,1881.93 1837.17,1885.31 1840.32,1888.7 1843.46,1892.12 1846.59,1895.55 1849.69,1899 1852.82,1902.51 1855.93,1906.04 1859.03,1909.59 1862.11,1913.15 1865.18,1916.73 1868.22,1920.33 1871.25,1923.94 1874.27,1927.57 1877.27,1931.22 1880.25,1934.89 1883.21,1938.57 1886.16,1942.27 1889.1,1945.99 1892.01,1949.72 1894.91,1953.48 1897.79,1957.24 1900.66,1961.03 1903.51,1964.83 1906.35,1968.66 1909.16,1972.49 1911.96,1976.35 1914.75,1980.22 1917.52,1984.11 1920.27,1988.02 1923,1991.94 1925.72,1995.89 1928.42,1999.85 1931.11,2003.82 1933.78,2007.82 1936.43,2011.83 1939.07,2015.85 1941.69,2019.9 805.807,884.017 803.187,879.972 800.551,875.943 797.898,871.933 795.229,867.938 792.543,863.963 789.84,860.004 787.123,856.061 784.387,852.138 781.635,848.231 778.868,844.34 776.083,840.467 773.282,836.612 770.464,832.773 767.631,828.953 764.781,825.148 761.913,821.362 759.03,817.593 756.131,813.84 753.214,810.106 750.283,806.388 747.334,802.687 744.368,799.005 741.387,795.338 738.388,791.69 735.374,788.058 732.343,784.444 729.295,780.847 726.231,777.268 723.151,773.705 720.054,770.16 716.941,766.632 713.812,763.12 710.704,759.669 707.581,756.236 704.443,752.821 701.29,749.423 698.121,746.043 694.936,742.68 691.737,739.335 688.522,736.008 685.29,732.699 682.045,729.407 678.784,726.133 "/>
     <polygon id="_364999248" class="fil1" points="1316.95,1362.19 2452.83,2498.07 2454.35,2499.58 2455.86,2501.1 2457.38,2502.63 2458.89,2504.16 2460.4,2505.71 2461.92,2507.27 2463.44,2508.84 2464.96,2510.42 2466.48,2512.01 2468.01,2513.62 2469.55,2515.24 2471.08,2516.88 2472.96,2518.89 2474.8,2520.87 2476.6,2522.82 2478.37,2524.75 2480.1,2526.65 2481.81,2528.53 2483.48,2530.39 2485.13,2532.24 2486.75,2534.07 2488.36,2535.89 2489.94,2537.7 2491.51,2539.5 2493.06,2541.29 2494.59,2543.08 2496.12,2544.87 2497.64,2546.66 2499.16,2548.46 2500.66,2550.26 2502.17,2552.07 2503.68,2553.88 2505.19,2555.71 2506.71,2557.56 2508.23,2559.42 2509.77,2561.3 2511.31,2563.2 2512.88,2565.13 2514.45,2567.08 2516.05,2569.06 2517.66,2571.07 2519.3,2573.11 2520.96,2575.18 2522.66,2577.3 1386.77,1441.42 1385.08,1439.3 1383.42,1437.23 1381.78,1435.18 1380.16,1433.17 1378.57,1431.19 1376.99,1429.24 1375.43,1427.32 1373.89,1425.42 1372.35,1423.54 1370.83,1421.68 1369.31,1419.83 1367.8,1418 1366.29,1416.18 1364.78,1414.37 1363.27,1412.58 1361.76,1410.78 1360.24,1408.99 1358.71,1407.2 1357.18,1405.41 1355.62,1403.61 1354.06,1401.81 1352.47,1400.01 1350.87,1398.19 1349.25,1396.36 1347.6,1394.51 1345.93,1392.65 1344.22,1390.77 1342.49,1388.87 1340.72,1386.94 1338.92,1384.99 1337.08,1383.01 1335.2,1381 1333.66,1379.36 1332.13,1377.74 1330.6,1376.13 1329.08,1374.53 1327.56,1372.95 1326.04,1371.38 1324.52,1369.83 1323.01,1368.28 1321.5,1366.75 1319.98,1365.22 1318.47,1363.7 "/>
     <polygon id="_364999320" class="fil1" points="1388.96,1444.53 2524.84,2580.41 2524.71,2580.33 1388.83,1444.45 "/>
     <polygon id="_365000640" class="fil1" points="570.365,668.833 1706.25,1804.72 1706.17,1804.68 570.286,668.796 "/>
     <polygon id="_365000352" class="fil1" points="807.615,887.357 1943.5,2023.24 1944.18,2025.04 1944.71,2026.87 1945.09,2028.71 1945.3,2030.58 1945.37,2032.44 1945.28,2034.3 1945.04,2036.14 1944.66,2037.95 1944.13,2039.73 1943.46,2041.47 1942.65,2043.15 1941.69,2044.76 1940.61,2046.3 1939.39,2047.76 1938.03,2049.12 1936.55,2050.38 800.666,914.502 802.151,913.241 803.506,911.877 804.727,910.419 805.814,908.879 806.764,907.264 807.577,905.585 808.248,903.852 808.777,902.072 809.16,900.258 809.397,898.417 809.484,896.56 809.421,894.695 809.205,892.833 808.833,890.983 808.303,889.155 "/>
     <polygon id="_365000664" class="fil1" points="537.729,740.644 1673.61,1876.53 1673.92,1876.86 538.035,740.975 "/>
     <polygon id="_364999944" class="fil1" points="764.467,947.897 1900.35,2083.78 1883.45,2106.72 747.565,970.841 "/>
     <polygon id="_365000232" class="fil1" points="747.565,970.841 1883.45,2106.72 1882.98,2108.49 1882.62,2110.29 1882.38,2112.14 1882.24,2114.03 1882.22,2115.98 1882.31,2117.99 1882.52,2120.06 1882.85,2122.19 1883.3,2124.41 1883.87,2126.7 1884.56,2129.07 1885.38,2131.53 1886.33,2134.09 1887.41,2136.74 1888.62,2139.49 1889.96,2142.36 1891.44,2145.33 1893.05,2148.43 1894.8,2151.64 1896.69,2154.99 1898.73,2158.47 1900.9,2162.08 1903.23,2165.84 1905.7,2169.74 1908.31,2173.8 1911.08,2178.02 1914.01,2182.39 1917.08,2186.94 1920.31,2191.65 1923.7,2196.55 1927.25,2201.62 1930.96,2206.88 1935.52,2213.25 1940.18,2219.61 1944.94,2225.94 1949.79,2232.24 1954.72,2238.52 1959.75,2244.77 1964.86,2250.98 1970.05,2257.17 1975.32,2263.31 1980.67,2269.42 1986.09,2275.48 1991.58,2281.49 1997.14,2287.46 2002.77,2293.38 2008.46,2299.25 2014.21,2305.06 2020.02,2310.81 2025.88,2316.5 2031.8,2322.13 895.922,1186.24 890.003,1180.62 884.137,1174.93 878.327,1169.18 872.577,1163.37 866.885,1157.5 861.258,1151.58 855.698,1145.61 850.205,1139.6 844.784,1133.53 839.437,1127.43 834.167,1121.28 828.976,1115.1 823.867,1108.88 818.842,1102.64 813.904,1096.36 809.057,1090.05 804.301,1083.72 799.64,1077.37 795.077,1071 791.368,1065.74 787.82,1060.66 784.43,1055.77 781.198,1051.05 778.124,1046.51 775.202,1042.13 772.433,1037.92 769.815,1033.86 767.346,1029.96 765.023,1026.2 762.846,1022.58 760.814,1019.11 758.921,1015.76 757.17,1012.55 755.556,1009.45 754.08,1006.47 752.738,1003.61 751.529,1000.86 750.451,998.204 749.502,995.649 748.681,993.187 747.986,990.813 747.414,988.523 746.965,986.312 746.637,984.173 746.428,982.103 746.336,980.096 746.358,978.148 746.494,976.254 746.742,974.407 747.1,972.604 "/>
     <polygon id="_364999992" class="fil1" points="1149.38,1581.34 2285.26,2717.23 2285.25,2717.33 1149.37,1581.45 "/>
     <polygon id="_365000256" class="fil1" points="467.361,919.465 1603.24,2055.35 1603.16,2055.31 467.275,919.429 "/>
     <polygon id="_364999968" class="fil1" points="1126.69,1579.33 2262.57,2715.21 2249.53,2707.3 2236.59,2699.33 2223.75,2691.3 2211,2683.2 2198.35,2675.03 2185.8,2666.8 2173.34,2658.5 2160.98,2650.13 2148.72,2641.7 2136.55,2633.19 2124.47,2624.62 2112.49,2615.98 2100.6,2607.27 2088.8,2598.48 2077.09,2589.63 2065.48,2580.7 2053.95,2571.71 2042.52,2562.64 2031.17,2553.49 2019.92,2544.27 2008.75,2534.98 1997.67,2525.61 1986.68,2516.17 1975.77,2506.65 1964.96,2497.05 1954.22,2487.38 818.34,1351.5 829.074,1361.17 839.893,1370.77 850.798,1380.29 861.791,1389.73 872.871,1399.1 884.038,1408.39 895.293,1417.61 906.638,1426.75 918.073,1435.82 929.597,1444.82 941.212,1453.75 952.919,1462.6 964.717,1471.38 976.607,1480.1 988.589,1488.74 1000.67,1497.31 1012.84,1505.81 1025.1,1514.25 1037.46,1522.61 1049.92,1530.91 1062.47,1539.15 1075.12,1547.31 1087.87,1555.41 1100.71,1563.45 1113.65,1571.42 "/>
     <polygon id="_365000496" class="fil1" points="1149.37,1581.45 2285.25,2717.33 2283.8,2717.93 2282.34,2718.42 2280.86,2718.81 2279.38,2719.1 2277.89,2719.29 2276.4,2719.38 2274.92,2719.37 2273.45,2719.27 2271.99,2719.07 2270.55,2718.78 2269.14,2718.4 2267.75,2717.93 2266.4,2717.38 2265.08,2716.74 2263.8,2716.02 2262.57,2715.21 1126.69,1579.33 1127.92,1580.13 1129.2,1580.86 1130.52,1581.5 1131.87,1582.05 1133.26,1582.52 1134.67,1582.9 1136.11,1583.19 1137.57,1583.39 1139.04,1583.49 1140.52,1583.5 1142.01,1583.41 1143.5,1583.22 1144.98,1582.93 1146.46,1582.54 1147.92,1582.05 "/>
     <polygon id="_365000544" class="fil1" points="786.219,927.634 1922.1,2063.52 1900.12,2083.53 764.234,947.645 "/>
     <polygon id="_365001264" class="fil1" points="805.829,884.012 1941.71,2019.89 1943.5,2023.24 807.615,887.357 "/>
     <polygon id="_365000856" class="fil1" points="1386.8,1441.41 2522.68,2577.29 2522.98,2577.67 2523.27,2578.05 2523.56,2578.43 2523.83,2578.82 2524.1,2579.21 2524.36,2579.61 2524.6,2580.01 2524.84,2580.41 1388.96,1444.53 1388.72,1444.12 1388.47,1443.72 1388.22,1443.33 1387.95,1442.94 1387.68,1442.55 1387.39,1442.16 1387.1,1441.78 "/>
     <polygon id="_365000880" class="fil1" points="1388.83,1444.45 2524.71,2580.33 2525.74,2582.22 2526.58,2584.17 2527.22,2586.17 2527.68,2588.2 2527.95,2590.26 2528.03,2592.32 2527.93,2594.38 2527.64,2596.41 2527.18,2598.42 2526.53,2600.38 2525.71,2602.28 2524.71,2604.11 2523.54,2605.86 2522.2,2607.51 2520.68,2609.05 2519,2610.46 2518.26,2611 2517.5,2611.51 2516.73,2611.99 2515.94,2612.43 2515.14,2612.84 2514.34,2613.21 2513.52,2613.56 2512.69,2613.86 1376.81,1477.98 1377.64,1477.67 1378.46,1477.33 1379.26,1476.96 1380.06,1476.55 1380.84,1476.11 1381.62,1475.63 1382.38,1475.12 1383.12,1474.58 1384.8,1473.16 1386.32,1471.63 1387.66,1469.98 1388.83,1468.23 1389.83,1466.4 1390.65,1464.5 1391.3,1462.54 1391.76,1460.53 1392.05,1458.49 1392.15,1456.44 1392.07,1454.38 1391.8,1452.32 1391.34,1450.29 1390.7,1448.29 1389.86,1446.34 "/>
     <polygon id="_365001360" class="fil1" points="800.666,914.502 1936.55,2050.38 1922.1,2063.52 786.219,927.634 "/>
     <polygon id="_365000928" class="fil1" points="1134.15,1245.57 2270.03,2381.45 2269.99,2381.41 1134.1,1245.53 "/>
     <polygon id="_365001456" class="fil1" points="764.234,947.645 1900.12,2083.53 1900.35,2083.78 764.467,947.897 "/>
     <polygon id="_365000976" class="fil1" points="1099.17,1286 2235.05,2421.88 2234.01,2420.92 1098.13,1285.04 "/>
     <polygon id="_365001336" class="fil1" points="1306.44,1511.16 2442.32,2647.04 2441.46,2646.24 1305.58,1510.36 "/>
     <polygon id="_365000784" class="fil1" points="1305.58,1510.36 2441.46,2646.24 2285.26,2717.23 1149.38,1581.34 "/>
     <polygon id="_365000760" class="fil1" points="1333.35,1497.74 2469.23,2633.62 2467.98,2634.44 2466.44,2635.35 2464.68,2636.33 2462.73,2637.37 2460.64,2638.44 2458.47,2639.52 2456.25,2640.6 2454.03,2641.66 2451.88,2642.68 2449.82,2643.63 2447.92,2644.51 2446.21,2645.29 2444.75,2645.95 2443.58,2646.47 2442.76,2646.84 2442.32,2647.04 1306.44,1511.16 1306.87,1510.96 1307.7,1510.59 1308.87,1510.07 1310.33,1509.41 1312.04,1508.63 1313.94,1507.75 1316,1506.8 1318.15,1505.78 1320.37,1504.72 1322.58,1503.64 1324.76,1502.56 1326.85,1501.49 1328.8,1500.45 1330.56,1499.47 1332.09,1498.56 "/>
     <polygon id="_365002200" class="fil1" points="1376.81,1477.98 2512.69,2613.86 2469.23,2633.62 1333.35,1497.74 "/>
     <polygon id="_365002032" class="fil1" points="1149.38,898.497 2285.27,2034.38 2288.65,2037.97 2291.95,2041.63 2295.16,2045.35 2298.27,2049.14 2301.3,2052.99 2304.23,2056.9 2307.08,2060.87 2309.82,2064.9 2312.48,2068.98 2315.04,2073.12 2317.5,2077.31 2319.87,2081.55 2322.14,2085.84 2324.31,2090.18 2326.39,2094.57 2328.36,2099 2330.24,2103.47 2332.02,2107.99 2333.69,2112.54 2335.26,2117.14 2336.73,2121.77 2338.1,2126.43 2339.36,2131.13 2340.51,2135.86 2341.57,2140.62 2342.51,2145.41 2343.35,2150.23 2344.08,2155.07 2344.7,2159.94 2345.21,2164.83 2345.61,2169.74 2345.91,2174.67 2345.95,2175.74 2345.99,2176.82 2346.01,2177.9 2346.04,2178.97 2346.06,2180.05 2346.08,2181.12 2346.11,2182.2 2346.14,2183.27 1210.26,1047.39 1210.23,1046.31 1210.2,1045.24 1210.18,1044.16 1210.16,1043.09 1210.13,1042.01 1210.11,1040.94 1210.07,1039.86 1210.02,1038.78 1209.73,1033.86 1209.33,1028.95 1208.82,1024.06 1208.2,1019.19 1207.47,1014.35 1206.63,1009.53 1205.68,1004.74 1204.63,999.979 1203.48,995.248 1202.22,990.549 1200.85,985.883 1199.38,981.254 1197.81,976.66 1196.13,972.106 1194.36,967.591 1192.48,963.116 1190.51,958.686 1188.43,954.301 1186.26,949.961 1183.99,945.67 1181.62,941.429 1179.16,937.239 1176.6,933.1 1173.94,929.017 1171.19,924.989 1168.35,921.02 1165.42,917.108 1162.39,913.259 1159.28,909.471 1156.07,905.747 1152.77,902.088 "/>
     <polygon id="_365001648" class="fil1" points="1284.49,778.106 2420.37,1913.99 2427.01,1921.4 2433.44,1928.96 2439.68,1936.66 2445.71,1944.49 2451.53,1952.45 2457.15,1960.54 2462.56,1968.75 2467.75,1977.08 2472.74,1985.53 2477.51,1994.08 2482.07,2002.75 2486.41,2011.51 2490.53,2020.38 2494.44,2029.34 2498.12,2038.39 2501.58,2047.53 2504.82,2056.76 2507.84,2066.06 2510.62,2075.44 2513.18,2084.89 2515.51,2094.41 2517.61,2103.99 2519.47,2113.63 2521.11,2123.33 2522.5,2133.08 2523.66,2142.87 2524.58,2152.72 2525.26,2162.6 2525.71,2172.52 2525.9,2182.47 2525.86,2192.45 2525.76,2194.8 2525.54,2197.12 2525.21,2199.4 2524.77,2201.65 2524.23,2203.85 2523.57,2206.02 2522.82,2208.13 2521.97,2210.19 2521.02,2212.21 2519.97,2214.16 2518.84,2216.06 2517.62,2217.9 2516.32,2219.67 2514.93,2221.38 2513.47,2223.01 2511.93,2224.58 2510.31,2226.07 2508.63,2227.48 2506.88,2228.81 2505.07,2230.06 2503.19,2231.22 2501.26,2232.29 2499.27,2233.27 2497.23,2234.16 2495.14,2234.94 2493.01,2235.63 2490.83,2236.21 2488.61,2236.69 2486.35,2237.05 2484.05,2237.31 2481.73,2237.45 2479.37,2237.47 2477.02,2237.38 2474.7,2237.16 2472.41,2236.84 2470.16,2236.4 2467.96,2235.85 2465.79,2235.2 2463.68,2234.45 2461.61,2233.59 2459.6,2232.64 2457.64,2231.6 2455.74,2230.47 2453.9,2229.25 2452.13,2227.94 2450.42,2226.56 2448.78,2225.09 2447.21,2223.55 1311.33,1087.67 1312.9,1089.21 1314.53,1090.67 1316.24,1092.06 1318.02,1093.37 1319.86,1094.59 1321.76,1095.72 1323.72,1096.76 1325.73,1097.71 1327.8,1098.56 1329.91,1099.32 1332.08,1099.97 1334.28,1100.52 1336.53,1100.95 1338.82,1101.28 1341.14,1101.49 1343.49,1101.59 1345.85,1101.57 1348.17,1101.43 1350.47,1101.17 1352.72,1100.8 1354.95,1100.33 1357.13,1099.75 1359.26,1099.06 1361.35,1098.27 1363.39,1097.39 1365.38,1096.41 1367.31,1095.34 1369.19,1094.18 1371,1092.93 1372.75,1091.6 1374.43,1090.19 1376.05,1088.7 1377.59,1087.13 1379.05,1085.49 1380.44,1083.79 1381.74,1082.01 1382.96,1080.18 1384.09,1078.28 1385.14,1076.32 1386.08,1074.31 1386.94,1072.25 1387.69,1070.13 1388.34,1067.97 1388.89,1065.77 1389.33,1063.52 1389.66,1061.24 1389.88,1058.92 1389.98,1056.57 1390.02,1046.59 1389.82,1036.64 1389.38,1026.72 1388.7,1016.83 1387.78,1006.99 1386.62,997.195 1385.22,987.445 1383.59,977.747 1381.73,968.104 1379.63,958.523 1377.3,949.005 1374.74,939.555 1371.95,930.176 1368.94,920.873 1365.7,911.65 1362.24,902.509 1358.56,893.457 1354.65,884.496 1350.53,875.631 1346.19,866.864 1341.63,858.2 1336.86,849.644 1331.87,841.199 1326.68,832.869 1321.27,824.658 1315.65,816.569 1309.83,808.607 1303.8,800.776 1297.56,793.079 1291.13,785.521 "/>
     <polygon id="_365002128" class="fil1" points="1439.78,664.848 2575.66,1800.73 2585.05,1811.75 2594.14,1822.98 2602.93,1834.39 2611.42,1846 2619.61,1857.8 2627.5,1869.77 2635.08,1881.92 2642.35,1894.23 2649.3,1906.71 2655.95,1919.34 2662.28,1932.13 2668.29,1945.06 2673.99,1958.12 2679.36,1971.32 2684.4,1984.65 2689.13,1998.1 2693.52,2011.66 2697.58,2025.34 2701.31,2039.12 2704.71,2053 2707.77,2066.97 2710.49,2081.03 2712.87,2095.17 2714.9,2109.39 2716.6,2123.67 2717.94,2138.03 2718.93,2152.44 2719.58,2166.9 2719.86,2181.41 2719.8,2195.97 2719.7,2198.32 2719.48,2200.64 2719.15,2202.92 2718.71,2205.17 2718.17,2207.37 2717.51,2209.53 2716.76,2211.65 2715.91,2213.71 2714.96,2215.72 2713.92,2217.68 2712.78,2219.58 2711.56,2221.41 2710.26,2223.19 2708.87,2224.89 2707.41,2226.53 2705.87,2228.1 2704.26,2229.59 2702.57,2231 2700.82,2232.33 2699.01,2233.58 2697.14,2234.74 2695.2,2235.81 2693.21,2236.79 2691.17,2237.67 2689.08,2238.46 2686.95,2239.15 2684.77,2239.73 2682.55,2240.2 2680.29,2240.57 2677.99,2240.83 2675.67,2240.97 2673.31,2240.99 2670.96,2240.89 2668.64,2240.68 2666.35,2240.35 2664.1,2239.92 2661.9,2239.37 2659.73,2238.72 2657.62,2237.96 2655.55,2237.11 2653.54,2236.16 2651.58,2235.12 2649.68,2233.99 2647.84,2232.76 2646.06,2231.46 2644.36,2230.07 2642.72,2228.61 2641.15,2227.06 2639.66,2225.45 1503.78,1089.57 1505.27,1091.18 1506.84,1092.72 1508.47,1094.19 1510.18,1095.58 1511.96,1096.88 1513.8,1098.1 1515.7,1099.24 1517.66,1100.28 1519.67,1101.23 1521.74,1102.08 1523.85,1102.84 1526.02,1103.49 1528.22,1104.03 1530.47,1104.47 1532.76,1104.8 1535.08,1105.01 1537.43,1105.11 1539.79,1105.09 1542.11,1104.94 1544.41,1104.69 1546.67,1104.32 1548.89,1103.85 1551.07,1103.26 1553.2,1102.58 1555.29,1101.79 1557.33,1100.91 1559.32,1099.93 1561.25,1098.85 1563.13,1097.69 1564.94,1096.45 1566.69,1095.12 1568.37,1093.7 1569.99,1092.21 1571.53,1090.65 1572.99,1089.01 1574.38,1087.3 1575.68,1085.53 1576.9,1083.69 1578.03,1081.8 1579.08,1079.84 1580.03,1077.83 1580.88,1075.76 1581.63,1073.65 1582.29,1071.49 1582.83,1069.29 1583.27,1067.04 1583.6,1064.76 1583.82,1062.44 1583.92,1060.08 1583.98,1045.53 1583.69,1031.02 1583.05,1016.56 1582.06,1002.14 1580.71,987.792 1579.02,973.504 1576.99,959.287 1574.61,945.146 1571.89,931.086 1568.83,917.115 1565.43,903.236 1561.7,889.456 1557.64,875.78 1553.25,862.215 1548.52,848.766 1543.48,835.438 1538.1,822.239 1532.41,809.173 1526.4,796.244 1520.07,783.461 1513.42,770.829 1506.46,758.352 1499.19,746.038 1491.62,733.89 1483.73,721.917 1475.54,710.122 1467.05,698.512 1458.26,687.093 1449.16,675.869 "/>
     <polygon id="_365002224" class="fil1" points="1083.41,962.039 2219.29,2097.92 2217.17,2095.76 2215.01,2093.64 2212.81,2091.56 2210.57,2089.53 2208.29,2087.54 2205.97,2085.6 2203.62,2083.71 2201.23,2081.87 2198.8,2080.09 2196.33,2078.36 2193.83,2076.7 2191.3,2075.09 2188.73,2073.55 2186.13,2072.08 2183.49,2070.67 2180.83,2069.34 2178.13,2068.08 2175.4,2066.89 2172.64,2065.78 2169.85,2064.76 2167.03,2063.81 2164.19,2062.95 2161.31,2062.17 2158.41,2061.48 2155.48,2060.89 2152.53,2060.39 2149.55,2059.98 2146.54,2059.67 2143.51,2059.46 2140.46,2059.36 2137.38,2059.36 2134.29,2059.46 998.404,923.583 1001.5,923.476 1004.58,923.476 1007.63,923.583 1010.66,923.79 1013.67,924.099 1016.65,924.505 1019.6,925.007 1022.53,925.602 1025.43,926.289 1028.31,927.064 1031.15,927.927 1033.97,928.873 1036.76,929.902 1039.52,931.011 1042.25,932.196 1044.95,933.458 1047.61,934.792 1050.25,936.198 1052.85,937.672 1055.42,939.212 1057.95,940.816 1060.45,942.483 1062.92,944.208 1065.34,945.99 1067.74,947.828 1070.09,949.718 1072.41,951.659 1074.69,953.648 1076.93,955.683 1079.13,957.761 1081.29,959.88 "/>
     <polygon id="_365001624" class="fil1" points="998.404,923.583 2134.29,2059.46 2119.94,2059.77 984.057,923.886 "/>
     <polygon id="_365002104" class="fil1" points="984.057,923.886 2119.94,2059.77 2118.57,2059.87 2117.19,2059.98 2115.82,2060.11 2114.45,2060.25 2113.08,2060.41 2111.71,2060.58 2110.34,2060.76 2108.98,2060.96 973.102,925.083 974.463,924.879 975.829,924.693 977.196,924.523 978.567,924.367 979.938,924.227 981.31,924.101 982.684,923.988 "/>
     <polygon id="_365001528" class="fil1" points="973.102,925.083 2108.98,2060.96 2106.65,2061.27 2104.32,2061.45 2102.01,2061.52 2099.72,2061.47 2097.46,2061.3 2095.21,2061.03 2093,2060.64 2090.82,2060.15 2088.68,2059.55 2086.57,2058.86 2084.51,2058.06 2082.49,2057.17 2080.52,2056.18 2078.6,2055.1 2076.74,2053.94 2074.93,2052.68 2073.19,2051.34 2071.51,2049.92 2069.9,2048.42 934.024,912.536 935.632,914.037 937.309,915.459 939.052,916.798 940.856,918.054 942.719,919.222 944.637,920.3 946.607,921.287 948.626,922.179 950.689,922.976 952.795,923.672 954.94,924.268 957.12,924.759 959.333,925.143 961.575,925.419 963.842,925.585 966.132,925.635 968.44,925.57 970.764,925.387 "/>
     <polygon id="_365001720" class="fil1" points="1210.26,1047.39 2346.14,2183.27 2346.16,2185.98 2346.05,2188.68 2345.8,2191.35 2345.42,2194 2344.91,2196.62 2344.27,2199.2 2343.52,2201.73 2342.64,2204.22 2341.65,2206.66 2340.54,2209.03 2339.32,2211.35 2338,2213.59 2336.57,2215.76 2335.04,2217.85 2333.42,2219.86 2331.7,2221.77 2329.89,2223.59 2327.99,2225.31 2326,2226.93 2323.94,2228.43 2321.79,2229.81 2319.57,2231.08 2317.28,2232.21 2314.92,2233.21 2312.49,2234.08 2309.99,2234.8 2307.44,2235.37 2304.83,2235.79 2302.17,2236.05 2299.45,2236.15 2296.69,2236.07 2293.89,2235.82 2291.45,2235.46 2289.1,2234.98 2286.83,2234.39 2284.64,2233.68 2282.53,2232.87 2280.51,2231.95 2278.57,2230.93 2276.7,2229.81 2274.92,2228.61 2273.21,2227.31 2271.59,2225.93 2270.04,2224.46 1134.16,1088.58 1135.71,1090.04 1137.33,1091.43 1139.04,1092.72 1140.82,1093.93 1142.68,1095.05 1144.63,1096.07 1146.65,1096.99 1148.76,1097.8 1150.95,1098.51 1153.22,1099.1 1155.57,1099.58 1158,1099.94 1160.81,1100.19 1163.57,1100.26 1166.29,1100.17 1168.95,1099.91 1171.56,1099.49 1174.11,1098.92 1176.61,1098.2 1179.04,1097.33 1181.4,1096.33 1183.69,1095.19 1185.91,1093.93 1188.06,1092.55 1190.12,1091.04 1192.11,1089.43 1194.01,1087.71 1195.82,1085.89 1197.54,1083.98 1199.16,1081.97 1200.69,1079.88 1202.12,1077.71 1203.44,1075.46 1204.66,1073.15 1205.76,1070.77 1206.76,1068.34 1207.63,1065.85 1208.39,1063.31 1209.03,1060.73 1209.54,1058.12 1209.92,1055.47 1210.17,1052.8 1210.28,1050.1 "/>
    </g>
    <path id="_385693528" class="fil1" d="M907.918 471.63c188.43,-29.4331 378.711,33.3803 512.204,171.803 107.928,111.914 166.417,261.216 163.794,416.651 -0.426378,25.2544 -21.2232,45.4181 -46.4835,45.0237 -25.2744,-0.394488 -45.4784,-21.2339 -45.052,-46.513 4.89095,-289.783 -238.699,-521.318 -527.574,-501.316 -14.3351,0.993308 -28.6288,2.5878 -42.8256,4.80473 -24.9815,3.90237 -48.3981,-13.2449 -52.2638,-38.2264 -3.86221,-24.9626 13.2496,-48.3307 38.2004,-52.2272zm-100.303 415.727l0 0zm527.588 493.639c20.2559,21.6189 33.3733,37.6689 51.5717,60.4205l0.0236221 -0.00708662c0.817323,0.994489 1.5378,2.0374 2.1626,3.11693l-0.134646 -0.0767717c6.0189,9.89883 3.71103,22.9465 -5.70591,30.1276 -1.96417,1.49764 -4.09489,2.62795 -6.30709,3.40394l-43.4681 19.7563c-5.83347,4.10197 -25.7079,12.8728 -26.9067,13.4185l-0.862205 -0.798426 -156.194 70.9867 -0.0129921 0.101575c-7.66654,3.48425 -16.2461,2.39528 -22.676,-2.11654 -139.638,-84.0048 -262.29,-178.836 -370.987,-287.533 -109.047,-109.047 -204.14,-232.136 -288.345,-372.331l-0.0862205 -0.0366142c-4.4067,-7.33701 -4.22835,-16.1516 -0.298819,-23.1059l70.7528 -155.679 0.305906 0.330709 11.0882 -21.6047 -1.15748 -1.24961 22.3996 -49.2874 -0.0791339 -0.0366142c5.10119,-11.2335 18.1606,-16.3654 29.4969,-11.7591l6.97205 4.42796c38.3008,30.8681 73.9926,64.7504 107.056,101.655 33.4689,37.3583 64.1386,77.654 91.995,120.897l0.022441 -0.00472441 1.78583 3.34488c4.10079,9.48662 1.31339,20.7071 -6.94843,27.1453l-14.4473 13.1315 -21.9851 20.0114 0.232677 0.251575 -16.9016 22.9441c-5.53937,18.6248 7.07481,43.0122 47.5122,100.161 48.143,68.0398 113.384,133.282 181.423,181.423 60.1382,42.5516 83.9989,54.2953 103.042,46.4965l0.914174 0.846851 18.711 -13.7693 -1.03583 -0.959056c3.96496,-4.01575 8.16379,-8.68938 12.8764,-13.937l23.1437 -25.5331 -0.0472441 -0.0437008c7.92993,-8.72363 21.0461,-9.92363 30.3803,-3.17481 43.4351,27.1772 83.8371,57.1949 120.953,90.2835 17.9055,15.965 33.3236,30.8126 49.7646,48.3603zm-408.829 -727.994c129.232,-20.1827 259.735,22.9134 351.275,117.835 74.0103,76.7434 114.126,179.143 112.326,285.73 -0.426378,25.2544 -21.2232,45.4181 -46.4835,45.0237 -25.2732,-0.394488 -45.4772,-21.2339 -45.0508,-46.513 3.2563,-192.985 -167.656,-341.341 -358.003,-311.622 -24.9827,3.90118 -48.3981,-13.2461 -52.2638,-38.2276 -3.86221,-24.9626 13.2484,-48.3296 38.1992,-52.226zm2.61142 199.611c16.7929,-23.5973 34.4362,-22.2496 68.9315,-20.9717 55.5213,2.0563 114.118,28.1268 151.468,66.8564 36.5929,37.9418 58.1221,87.6154 60.6402,140.287 0.137008,2.87126 0.135827,5.7378 0.23504,8.6067 0.996851,28.9831 -22.0902,56.1697 -52.2556,52.5485 -26.4319,-3.17244 -38.5311,-27.4595 -39.2752,-51.665 -0.987402,-32.1662 -12.8858,-62.9752 -35.3162,-86.2347 -22.3996,-23.2276 -51.8422,-40.1705 -85.0087,-38.4567l-14.3469 0.303544c-3.6626,0.253937 -7.32756,0.630709 -10.9559,1.19646 -24.9815,3.89882 -48.3969,-13.2473 -52.2615,-38.2276 -1.90866,-12.3343 1.31221,-24.6425 8.14489,-34.2425z"/>
   </g>
  </g>
  <path class="fil2" d="M1024 0c565.538,0 1024,458.462 1024,1024 0,565.538 -458.462,1024 -1024,1024 -565.538,0 -1024,-458.462 -1024,-1024 0,-565.538 458.462,-1024 1024,-1024z"/>
  <path class="fil3" d="M907.918 471.63c16.8012,-2.62441 33.711,-4.60866 50.6764,-5.78268 16.9394,-1.17284 33.9319,-1.55788 50.9079,-1.25079 155.68,2.82166 302.547,66.7713 410.62,178.837 107.928,111.914 166.417,261.216 163.794,416.651 -0.426378,25.2544 -21.2232,45.4181 -46.4835,45.0237 -25.2744,-0.394488 -45.4784,-21.2339 -45.052,-46.513 2.21575,-131.211 -47.1237,-257.146 -138.232,-351.618 -91.1446,-94.5119 -214.885,-148.468 -346.193,-150.846 -14.3906,-0.259843 -28.7929,0.154725 -43.1492,1.14803 -14.3351,0.993308 -28.6288,2.5878 -42.8256,4.80473 -24.9815,3.90237 -48.3981,-13.2449 -52.2638,-38.2264 -3.86221,-24.9626 13.2496,-48.3307 38.2004,-52.2272z"/>
  <path class="fil4" d="M926.374 653.001c11.5181,-1.79882 23.1106,-3.17362 34.7422,-3.97914 11.6055,-0.80315 23.2512,-1.05354 34.8827,-0.842127 106.774,1.93583 207.527,45.7937 281.651,122.656 74.0103,76.7434 114.126,179.143 112.326,285.73 -0.426378,25.2544 -21.2232,45.4181 -46.4835,45.0237 -25.2732,-0.394488 -45.4772,-21.2339 -45.0508,-46.513 1.39016,-82.3642 -29.5736,-161.397 -86.7638,-220.699 -57.1961,-59.3091 -134.823,-93.1725 -217.226,-94.6642 -9.04489,-0.164173 -18.1004,0.115748 -27.1252,0.739371 -8.99883,0.623623 -17.9752,1.60984 -26.8878,3.00118 -24.9827,3.90118 -48.3981,-13.2461 -52.2638,-38.2276 -3.86221,-24.9626 13.2484,-48.3296 38.1992,-52.226z"/>
  <path class="fil5" d="M1149.38 898.497c36.5929,37.9418 58.1221,87.6154 60.6402,140.287 0.137008,2.87126 0.135827,5.7378 0.23504,8.6067 0.996851,28.9831 -22.0902,56.1697 -52.2556,52.5485 -26.4319,-3.17244 -38.5311,-27.4595 -39.2752,-51.665 -0.987402,-32.1662 -12.8858,-62.9752 -35.3162,-86.2347 -21.8705,-22.6772 -52.1374,-40.4693 -84.6438,-38.4792l-0.364961 0.022441 -1.12795 0.0472441 -1.10433 0.0177165 -0.38504 -0.0011811 -6.40867 -0.0389764c-1.77638,0.0602363 -3.55158,0.157087 -5.32087,0.27874 -3.6626,0.253937 -7.32756,0.630709 -10.9559,1.19646 -24.9815,3.89882 -48.3969,-13.2473 -52.2615,-38.2276 -1.90866,-12.3343 1.31221,-24.6425 8.14489,-34.2425 16.7929,-23.5973 34.4362,-22.2496 68.9315,-20.9717 55.5213,2.0563 114.118,28.1268 151.468,66.8564z"/>
  <path class="fil6" d="M1306.44 1511.16c1.45394,-0.661418 30.3981,-13.4315 28.4091,-15.2799l-230.627 -213.594 -25.024 18.4146 227.242 210.46z"/>
  <path class="fil6" d="M746.894 971.752l17.5725 -23.8547 -214.027 -231.092 -13.8449 26.9752 210.545 227.335c-0.0850394,0.211417 -0.166536,0.424016 -0.245669,0.636615z"/>
  <path class="fil7" d="M1098.13 1285.04c3.96496,-4.01575 8.16379,-8.68938 12.8764,-13.937 2.56181,-2.85236 5.24764,-5.84528 8.86064,-9.81969l14.2831 -15.7134 -0.0472441 -0.0437008c7.92993,-8.72363 21.0461,-9.92363 30.3803,-3.17481 43.4351,27.1772 83.8371,57.1949 120.953,90.2835 37.467,33.404 71.5418,69.9355 101.958,109.834l-18.176 13.8709 18.2351 -13.9016c7.67717,10.0713 5.73544,24.4595 -4.33465,32.1378 -1.96417,1.49764 -4.09489,2.62795 -6.30709,3.40394l-47.2264 21.4642c-0.252756,-0.263386 -0.51378,-0.519685 -0.785434,-0.770079l-230.669 -213.634z"/>
  <path class="fil7" d="M547.966 718.12l22.3996 -49.2874 -0.0791339 -0.0366142c5.24056,-11.5276 18.8339,-16.6276 30.3626,-11.3882 2.30197,1.04764 4.34764,2.42717 6.1063,4.05709 38.3008,30.8681 73.9926,64.7504 107.056,101.655 33.4689,37.3583 64.1386,77.654 91.995,120.897l0.022441 -0.00472441c6.47953,10.0559 4.09607,23.276 -5.1626,30.4902l-14.4473 13.1315c-3.97441,3.61299 -6.96615,6.29882 -9.81969,8.86182 -5.32205,4.77874 -10.0547,9.02953 -14.1071,13.0417l-214.327 -231.417z"/>
  <path class="fil8" d="M1126.69 1579.33c-139.638,-84.0048 -262.29,-178.836 -370.987,-287.533 -109.047,-109.047 -204.14,-232.136 -288.345,-372.331l19.5721 -11.8441 -19.6583 11.8075c-4.4067,-7.33701 -4.22835,-16.1516 -0.298819,-23.1059l70.7528 -155.679 210.754 227.561c-7.6004,19.0028 4.22363,42.9154 46.5945,102.797 24.0685,34.0158 52.363,67.2839 83.2512,98.1721 30.8882,30.8882 64.1563,59.1839 98.1721,83.2512 60.1382,42.5516 83.9989,54.2953 103.042,46.4965l227.55 210.745 -157.71 71.6764 -9.49961 -20.7744 9.48662 20.876c-7.66654,3.48425 -16.2461,2.39528 -22.676,-2.11654z"/>
  <path class="fil9" d="M713.812 763.12c-33.0638,-36.9048 -68.7556,-70.7871 -107.056,-101.655 -1.75866,-1.62992 -3.80433,-3.00945 -6.1063,-4.05709 -0.288189,-0.131102 -0.577559,-0.255118 -0.868111,-0.37441 16.7835,27.6414 38.7803,58.5237 65.1178,90.6343 47.6776,58.128 99.5824,108.089 142.719,139.691 -0.496063,-1.14567 -1.09016,-2.26417 -1.78819,-3.34725l-0.022441 0.00472441c-27.8563,-43.2426 -58.526,-83.5383 -91.995,-120.897z"/>
  <path class="fil9" d="M1284.77 1332.43c-37.1126,-32.8311 -76.4859,-62.3552 -118.101,-88.5839 -1.93465,-1.41496 -4.12677,-2.55 -6.53386,-3.32362 -0.302362,-0.0968505 -0.604725,-0.186614 -0.905906,-0.270473 19.8697,25.5118 33.189,41.9563 75.169,82.4894 41.9788,40.5343 108.062,95.3918 154.565,121.789 -0.624804,-1.07953 -1.34528,-2.12244 -2.16378,-3.11693l-0.0212599 0.00708662c-31.9902,-39.978 -63.4796,-76.1068 -102.008,-108.991z"/>
 </g>
</svg>
