<svg id="female_Cutomer_service_with_laptop" data-name="female Cutomer service with laptop" xmlns="http://www.w3.org/2000/svg" viewBox="0 0 48 48"><defs><style>.cls-1{fill:#a87e6b;}.cls-2{fill:#be927c;}.cls-3{fill:#f6ccaf;}.cls-4{fill:#ffdec7;}.cls-5{fill:#425b72;}.cls-6{fill:#db5669;}.cls-7{fill:#f26674;}.cls-8{fill:#dad7e5;}.cls-9{fill:#edebf2;}.cls-10{fill:#7c7d7d;}.cls-11{fill:#919191;}</style></defs><title>female Cutomer service with laptop</title><path class="cls-1" d="M33,10V27H15V10a9,9,0,0,1,18,0Z"/><path class="cls-2" d="M33,10V27H17V10a9,9,0,0,1,8-8.94A9,9,0,0,1,33,10Z"/><path class="cls-3" d="M27,21.09V25a4.26,4.26,0,0,1-6,0V21.09Z"/><path class="cls-4" d="M27,21.19c0,4.18.07,3.77-.17,4A4.25,4.25,0,0,1,23,24V21.19Z"/><path class="cls-3" d="M30,10c-.54,6.57-.23,8.65-2.32,10.56A5.44,5.44,0,0,1,18.58,17L18,10c1.66-.55,3.06-1.11,4-3A10.41,10.41,0,0,0,30,10Z"/><path class="cls-4" d="M30,10c-.5,6-.16,9-2.63,10.82A5.43,5.43,0,0,1,20.58,16L20,9.17A5.34,5.34,0,0,0,22,7,10.41,10.41,0,0,0,30,10Z"/><path class="cls-5" d="M32,20H25a1,1,0,0,1,0-2h7a1,1,0,0,0,1-1V13a1,1,0,0,1,2,0v4A3,3,0,0,1,32,20Z"/><path class="cls-6" d="M34,12v1a2,2,0,0,1-2,2H29.59L30,10h2A2,2,0,0,1,34,12Z"/><path class="cls-6" d="M18.41,15H16a2,2,0,0,1-2-2c0-1.21-.09-2.09,1-2.73.65-.38,1.22-.27,3-.27C18.3,13.65,18.21,12.45,18.41,15Z"/><path class="cls-7" d="M18.25,13H17a2,2,0,0,1-2-2v-.73c.65-.38,1.22-.27,3-.27Z"/><path class="cls-7" d="M29.75,13H31a2,2,0,0,0,2-2v-.73c-.65-.38-1.22-.27-3-.27Z"/><path class="cls-6" d="M38,30.34c0,.81,0,.66-.15.66C8.77,31,10.1,31,10,31v-.67a4,4,0,0,1,3.28-3.94L21,25a4.26,4.26,0,0,0,6,0l7.72,1.4A4,4,0,0,1,38,30.34Z"/><path class="cls-7" d="M37.77,29H13.32a1,1,0,0,1-.93-1.39,3.86,3.86,0,0,1,.91-1.21L21,25a4.26,4.26,0,0,0,6,0l7.72,1.4A4,4,0,0,1,37.77,29Z"/><path class="cls-8" d="M39.85,33.14c-1,13.91-.8,11.12-1,13.86H9.14l-1-13.86a2,2,0,0,1,2-2.14C39.22,31,37.9,31,38,31A2,2,0,0,1,39.85,33.14Z"/><path class="cls-9" d="M39.85,33.14,39,45H13.93a3,3,0,0,1-3-2.79l-.79-11.07c0-.21-2.22-.14,27.7-.14A2,2,0,0,1,39.85,33.14Z"/><path class="cls-10" d="M26,39a2,2,0,1,1-2.82-1.82A2,2,0,0,1,26,39Z"/><path class="cls-11" d="M25.82,39.82a2,2,0,0,1-2.64-2.64A2,2,0,0,1,25.82,39.82Z"/></svg>